<svg xmlns="http://www.w3.org/2000/svg" version="1.0" viewBox="0 0 1024 1024"><path fill="#408040" fill-opacity=".1" d="M543.8 465.7c.7.3 1.6.2 1.9-.1.4-.3-.2-.6-1.3-.5-1.1 0-1.4.3-.6.6m80 19c.7.3 1.6.2 1.9-.1.4-.3-.2-.6-1.3-.5-1.1 0-1.4.3-.6.6"/><path fill="green" fill-opacity=".7" d="M580.8 467.7c.7.3 1.6.2 1.9-.1.4-.3-.2-.6-1.3-.5-1.1 0-1.4.3-.6.6"/><g fill="green" fill-opacity=".9" stroke-opacity=".9" stroke-width="0"><path d="M536.4 455.5c-1.6.7-3.9 2.3-5.1 3.6-2.7 2.9-5.6 9.6-4.8 10.9.4.6.2 1-.4 1s-.8.7-.5 1.5c.4.8.1 1.5-.5 1.5s-.9 1.6-.7 4.2c.1 2.4-.1 5.1-.6 6.2q-1.05 1.8.3 3c.9.8 1 .8.4-.4-.8-1.3-.7-1.3.8-.1 1.7 1.3 2.3.6 1.8-2.2 0-.4.6-.7 1.5-.7s1.2.5.8 1.2q-.75 1.05.6.3c.8-.5 1.1-.4.7.2-.3.5-.2 2.6.3 4.6.8 3.9.4 4.6-1.4 2.3-.9-1.3-1.3-1.3-2.6.2-1.3 1.4-1.3 1.5.2 1 2.4-1 3.8 1.1 3.9 5.6 0 2.3.3 3.5.6 2.8.2-.6.9-1.2 1.4-1.2.4 0 .6.7.3 1.5-.4.8-.2 1.5.4 1.5s1.3 1.4 1.7 3.1c.5 2.3 1 2.8 1.8 2 .6-.6 2-1.1 3.2-1 2 0 2 0-.1.9-1.2.4-2.4 1.6-2.8 2.6-.6 1.7-.6 1.7 1.3 0 2-1.8 2.1-1.8 3.1 1 .6 1.6 1.4 2.4 1.8 1.9.4-.6 1.8-1.9 3.2-3l2.4-2-1.8 2.8c-1.4 2.2-1.5 3.1-.5 4.3s.8 1.2-1.6 0c-1.5-.8-3.6-1.3-4.6-1.1-1.6.3-1.7.1-.9-1.5 1.7-3.3 1.1-3.6-1-.5-1.4 2.1-2 2.5-2 1.3 0-.9-.8-2.2-1.7-2.7-1-.6-1.3-1.1-.6-1.1.8 0 .8-.7 0-2.9-.6-1.7-1.5-2.7-2.1-2.4-.5.3-.6.1-.2-.5.4-.7.2-1.2-.3-1.2-.6 0-1.1.9-1.1 2 0 2.3-1 2.6-2.8.8-2-2-1.4.7 1.1 4.2 1.2 1.8 3.4 4.2 4.9 5.3 5 3.8 17.9 3.1 16.4-.8q-.45-1.35.9-.9c1.4.6 4.1-3.3 3.1-4.4-.3-.3-.6 0-.6.8 0 1-.4 1-1.7-.1-1-.8-1.4-.9-1-.2.8 1.2-1 2.9-2 1.9-.3-.3.9-1.9 2.7-3.6s2.5-2.8 1.6-2.4c-2.2.8-2-.2.4-2.6 2.5-2.5 2.5-2.6 2.5 1 .1 1.6-.2 3-.6 3-.3 0-.4 1.1-.1 2.5.2 1.4.9 2.2 1.4 1.9.5-.4.8-1.5.5-2.5s.2-2.6 1-3.6c1.4-1.7 1.4-1.7 1 .4-.3 1.4 0 2.3.6 2.3.8 0 .7.3-.1.9-.9.5-1.1 1.7-.6 3.4q.6 2.7-.6 2.7c-.7 0-1-.7-.5-1.8.5-1.3.4-1.4-.6-.5-1.4 1.4.4 4.3 2.7 4.3 1.1 0 1.4-3.3 1.4-17.5V483h-8.6c-8.5 0-8.6 0-7.9 2.2.4 1.3.6 3.3.6 4.4 0 1.2.6 2.7 1.3 3.3 1.5 1.3 6.9.4 6.1-1-.3-.4-1.3-.6-2.3-.3-1 .4-1.3.3-.6-.3.6-.4 1-2 .9-3.6-.1-1.5 0-2.5.3-2.2s1.1 0 1.9-.7c1.8-1.5 2.5-.6 2.9 3.9.3 2.9.1 3.4-.7 2.3-.8-1.2-1-1.2-.7-.1.7 2.4 3.3 2 3.4-.5.1-1.4-.2-2.1-.8-1.8-.6.4-.6-.1.1-1.3.6-1.1.8-2.3.6-2.7-.3-.3-.2-.4.2-.1s.8 1.5 1 2.8c.8 6.1.9 7.7.4 7.8-.3 0-1.5.2-2.6.4s-2.3-.1-2.7-.8-.8.2-.8 2.1c0 2 .4 3.1 1 2.7s.8-1 .5-1.5c-.3-.4.2-1 1-1.4 2.6-1 1.7.8-3 5.7-2.6 2.6-4.3 5.2-4 5.7.3.6.1 1-.4 1-.6 0-1.1-.3-1.1-.8 0-.4-1.5-.7-3.2-.7-5.9-.1-7.2-.9-9.2-5.3-1.3-3-2.2-3.9-2.7-3-.6.8-.8 0-.8-2.2.4-10.1-.1-12.9-2.1-13.5-1.1-.3-1.9-1.2-1.7-1.8.1-.7-.6-1.1-1.5-1.1-1.5.1-1.6 0-.1-2.2 1.8-2.9 2.7-3.1 1.9-.6-.4 1.2.2 2.6 1.5 3.8 1.1 1 2 1.4 1.9.9-.2-.6-.1-1.2 0-1.5 1.1-2.9.4-4.9-1.9-5.3-1.4-.3-3.2 0-4 .6-1.2 1-1.2.9-.2-1.1 1.3-2.4 2.6-2.8 3.6-1.2 1.1 1.8 4.5 1.1 4.5-.9 0-1 1.3-3.3 2.9-5 2.2-2.4 3.8-3.1 6.6-3.1 5 0 7.4 1.5 9.1 5.7 1.4 3.3 1.7 3.5 5.2 2.8 2-.4 3.9-.9 4.1-1.1.7-.7-2.1-9.4-3.1-9.4-.5 0-.7-.4-.4-.8.6-1-3.8-5.4-6.9-6.9-2.8-1.4-11.6-1.3-15.1.2m11.6 1.7c-1.1.4-2 1-2 1.4 0 .3.6.4 1.4.1s2 0 2.6.8c.9 1.1.6 1.3-1.9.9-1.9-.3-3.1-.1-3.1.6 0 .6.4.9.8.6.5-.3.9.1.9.9s-.6 1.5-1.3 1.5c-1.7 0-2.6-3-1.4-4.5 1.1-1.3.3-2.5-1.7-2.5-.9 0-1.1.8-.7 2.5.3 1.4.4 2.5 0 2.5-.8 0-4.6-4.2-4.6-5.2 0-.4 2.9-.7 6.5-.6 4.2.2 5.8.5 4.5 1m6 2.4c-.8.8-.9 1.4-.4 1.3 2.4-.4 3.6.2 3 1.6-.3.8-.9 2.2-1.3 3.2-.4 1.1-.3 1.4.5.9s1-.1.5 1.1c-.6 1.6-.4 1.6 1.6-.2l2.3-2-1.9 3.3c-1 1.7-2.5 3.2-3.3 3.2-1.3 0-1.3-.1 0-1 1.3-.8 1.1-1.2-.8-2.6-2.2-1.5-2.2-1.7-.6-3.5.9-1.1 1.4-2.2 1.1-2.6-.4-.3-.7-.2-.7.3s-1.3 1.1-3 1.2c-1.6.1-3-.2-3-.7 0-.6.9-.8 1.9-.6 1.4.2 2.1-.4 2.5-2.1.4-1.3 1.1-2.4 1.7-2.4.8 0 .7.5-.1 1.6m-18.3.9c.4.4.3.5-.3.2-.7-.4-1.5 0-1.8.9-.9 2.4-.8 2.6 1.2 1.5 1.3-.7 2.3-.6 3 .1.9.9 1.2.9 1.2.1 0-.7.9-1.1 2-1s2 .5 2 1-.6.7-1.2.4c-.7-.2-2.1.3-3.1 1.2-1 .8-1.7 1-1.5.4s-.1-1.1-.7-1.1c-.5-.1-.9.5-.7 1.3.1.7-.2 1.6-.8 2s-.7-.1-.3-1.1c.5-1.4.3-1.6-1.1-1.1-1 .4-1.5.3-1.1-.3.3-.6.2-1-.3-1-.6 0-1.2.7-1.6 1.5q-.45 1.5 1.2 1.5c1.5 0 1.5.2.2 1-1 .6-1.1 1-.2 1 .6 0 1.2.8 1.2 1.7 0 1.5-.2 1.6-1 .3-.8-1.2-1-1-1 .9 0 1.8-.3 2.2-1.1 1.4-1.6-1.6-1.7-8.2-.2-8.7.7-.3 1-1.3.7-2.3-.5-1.5-.4-1.6.5-.3s1.1 1.3 1.2 0c.1-.8.1-1.8 0-2.2-.1-.9 2.7-.4 3.6.7m23.5 10.7c-.7.7-1.2.8-1.2.2 0-1.4 1.2-2.6 1.9-1.9.2.3-.1 1.1-.7 1.7m-28.2 8c0 1.8-.2 2-.9.8-.6-.8-.7-1.8-.5-2.2.9-1.4 1.4-.9 1.4 1.4m18.8 9.3c-.3.3-.9-.2-1.2-1.2-.6-1.4-.5-1.5.5-.6.7.7 1 1.5.7 1.8m10.9 9c0 .8-.3 1.5-.7 1.5s-.5 1.1-.3 2.4c.3 1.5-.1 2.5-1.1 2.9-1.4.5-1.5.3-.6-1.3.7-1.3.7-2 .1-2-.7 0-.7-.9.1-2.5 1.3-2.8 2.5-3.3 2.5-1m-27.3 12.8c-.8 2.1-3.4 2.2-3.4.2 0-.8.7-1.5 1.6-1.5s1.2-.5.8-1.3c-.5-.9-.4-.9.5-.1.6.6.9 1.8.5 2.7m12.9.3c-.8 2.1-3.2 2.5-3 .6 0-1 .9-1.8 1.8-1.8s1.5.6 1.2 1.2m27.4-41c-1.7.9-2.6 2.1-2.3 2.9s0 1.7-.6 2.1c-.7.5-.8.2-.3-.6q.75-1.35-.3-.6c-1.8 1.1-1.5 3.9.3 3.2.9-.3 1.5 0 1.5.8 0 .9-.7 1.2-2 .9-1.5-.4-2 0-2 1.6 0 1.8.6 2.1 4.1 2.1s4-.3 3.5-1.7c-.4-1-.4-1.4 0-1.1.3.4 1.3.1 2.1-.7 2.1-2.2 6-1.8 7.7.6.8 1.2 2 1.9 2.7 1.7 1.5-.5 2.1-3.8.7-3.8-.6 0-.4-.7.3-1.7 1.3-1.5 1.1-1.6-2.1-.9-6 1.3-6.5 1.2-6.2-.9.2-1.1 1-2.7 1.9-3.5 1.3-1.3 1.4-1.3 1.1.5-.1 1.1.2 2.1.7 2.2.6.2 1-.1 1-.6s.3-1.3.8-1.7c.4-.4.7 0 .7 1 0 .9.5 1.4 1 1.1 2.3-1.4 4.1 1.8 3.9 7-.1 2.8.1 5.8.6 6.5.6 1 .4 1.2-1.1.6-1-.5-2.5-.9-3.2-.9-.8 0-.7-.6.5-1.9 1.5-1.7 1.5-1.8-.6-1.8-1.2 0-2 .4-1.6.9.3.5-.6 1.8-2 2.9-1.6 1.3-2.2 2.3-1.5 2.7.6.4.8 1.4.6 2.3-.3 1-.2 2.3.3 3.1.7 1.1 1.1 1 2-.5 1-1.6 1.1-1.1.9 2.8-.3 5.3-.2 5.4 2.6 3.3 1.7-1.3 1.8-1.5.3-1.5-.9 0-1.7-.7-1.7-1.6 0-1.3.3-1.4 1.4-.5 1.2 1 1.3.8.9-.8-.3-1.2-1-2.1-1.7-2.1-.6 0-.3-.5.7-1.1 1.6-.9 1.6-1.2.2-2.6-2-2-1.4-2.6 1.9-1.7 2.5.6 3.9 4.4 1.6 4.4-.5 0-1 .5-1 1.1 0 .5.5.7 1 .4.6-.3 1 .1 1 1s-.4 1.3-1 1c-.5-.3-1 .1-1 1s.5 1.3 1 1c.6-.3 1 .1 1 1s-.4 1.4-.9 1.1-1.1.1-1.5.9c-.3.8-.1 1.7.4 2 .4.3 1.1-.1 1.3-.7.3-.8.6-.6.6.4.1 1-.3 1.8-.9 1.8-.5 0-1 .4-1 1 0 .5.6.7 1.4.4 2.2-.8 1.9-19.4-.3-21.1-1.4-1.2-1.4-1.2.2-.7 3.6 1.3 1.2-8.4-3.2-12.6-2.3-2.2-3.9-2.9-7-2.8-2.3 0-4.1.4-4.1.9s-.8.9-1.7.9c-1.5 0-1.6-.2-.3-1 2.4-1.6-.2-1.1-3.3.6m4.6 4.9c-.9 1.6-1.1 1.6-1.6.1-.4-.9-.2-1.6.4-1.6s.7-.6.3-1.3c-.5-.9-.4-.9.6 0 .8.7.9 1.6.3 2.8m-3.8-.5c-.3.5-.1 1.1.5 1.5s.8 1.1.4 1.6c-.9 1.6-2.4-.1-2.4-2.7 0-1.5.4-2.3 1-1.9s.8 1 .5 1.5m33.8-5.3c-1.8.7-1.6 2.8.3 4.4 1.5 1.2 1.6 1.1 1.1-1.1-.4-1.4-.4-1.9-.1-1.2.5 1 .9 1 2.2 0 1.3-1.1 1.5-1.1.8.2-.4.8-.1.7.7-.3 1.5-1.8 1.6-1.8 2.6.1 1.2 2.3.3 6.4-1.3 5.6-.6-.3-.1.3 1 1.3 1.2 1 2.5 2.8 2.8 4 .6 1.8 1.4 2.2 4.7 2.1h4l-.6-4.1c-.8-4.9-1.6-6.6-4.6-9.2-1.2-1.1-1.9-1.4-1.5-.8.4.7.3 1.3-.3 1.3-.5 0-1.1-.5-1.3-1.2-.4-1.2-8.2-2-10.5-1.1m12.7 3.4c2 .3 2.5 1 2.8 4.4.2 2.2.8 4.3 1.4 4.6.5.3 0 .9-1.1 1.2-1.2.3-2.1 0-2.1-.6 0-.8-.4-.7-.9.2-1.2 1.9-1.9.3-1.9-4.3 0-2.1-.5-4.3-1.1-4.9s-1.1-1.6-1.1-2.2.3-.6.8.1c.4.7 1.8 1.4 3.2 1.5"/><path d="M620.7 473.7c-1 .9-.9 2.3.2 2.3.5 0 1.1-.7 1.5-1.5.5-1.5-.5-2-1.7-.8m-18.2-.3c-2 3-3.2 12.6-1.6 12.6.6 0 1.1.5 1.1 1.1 0 .5-.5.7-1.2.3s-.3.8.8 2.7 3.6 4.2 5.7 5.2c4.5 2.3 6.8 1.3 3.7-1.5-1.2-1.1-2-2.7-1.8-3.6.4-1.8 2.8-2.9 2.8-1.2 0 .6-.4.8-1 .5-.5-.3-1 0-1 .8 0 .7.6 1.4 1.3 1.4 2.4 0 1.6-3.9-1.3-6.8-2.5-2.5-2.7-3.2-1.7-5.3.7-1.3 1.6-2.4 2-2.3 1.3.3 3.2-3.1 2.3-4-.4-.4-1.4.1-2.2 1.1-.8 1.1-1.4 1.4-1.4.8 0-.7-.5-1.2-1-1.2-.6 0-.8 1.2-.4 2.7.4 2.3.3 2.5-.6 1.3s-1-1.1-.5.7c.3 1.2.1 2.4-.6 2.8-.8.5-1-.9-.7-4.9.5-6.1-.3-6.9-2.7-3.2m5.5 11.2c0 .8-.5 1.2-1.1.8-.8-.5-.8-.1 0 1.3.6 1.1.8 2.3.5 2.5-.2.3 0 1.8.6 3.4.9 2.5.8 2.7-.3 1.2-.8-1-1.7-1.5-2-1.1-.4.3-.7-1.7-.7-4.5 0-4 .4-5.2 1.5-5.2.8 0 1.5.7 1.5 1.6m-54 2c0 .8-.4 1.2-1 .9s-.7.1-.4 1c.7 1.8.7 1.8 2.3-1.3.8-1.4.8-2.2.1-2.2-.5 0-1 .7-1 1.6m-25.6 1.2c.5.8 0 1.2-1.3 1.2-2.9 0-3.4 1.5-2.6 7.6.6 4.9.9 5.4 3.1 5.4 2.5 0 3.2-1.4 1.3-2.6-.8-.4-.7-.9.2-1.5 1.2-.7 1.2-1 0-2.1-1-1-1.2-1-.7-.1s0 1.3-1.4 1.3c-1.7 0-2.1-.5-1.8-2.8.2-1.6 1.2-3.1 2.6-3.7 2.4-1.1 2.8-2 1-3.1-.7-.4-.8-.3-.4.4m.1 12.4c.6.4.2.8-.7.8-1 0-1.8-.7-1.8-1.7 0-.9.3-1.2.8-.7.4.5 1.2 1.2 1.7 1.6m48.5-11.1c0 .5.5.7 1.2.3s.8-.3.4.5c-.6.9-1.1.9-2.2 0s-2-.8-3.9.5c-3 2-3.2 3-.5 2.1 1.2-.4 2-.2 2 .5 0 .6-.4.9-.9.6-.4-.3-1.7.4-2.7 1.7-1.9 2.1-1.9 2.1 0 .7 1.9-1.5 1.9-1.4.2 1.7L569 501l2.6-1c1.5-.6 2.9-.8 3.2-.5s0 .5-.7.5-.9.5-.5 1.2c.5.8.2.9-.9.5-.9-.3-1.6-.3-1.6.1.4 2.8-.3 5.2-1.6 5.2-.9 0-1.5.9-1.5 2.2 0 1.7.3 1.9 1.2 1 2-2 3.3-1.4 1.4.7-1.6 1.7-1.5 2 .3 4.2 1.1 1.3 2 1.8 2.1 1.1 0-1.7 2-1.5 2 .2 0 2.9 6.4 3.5 11.6 1 4.5-2.2 9.6-10.4 6.4-10.4-.5 0-1 1.2-1 2.6 0 2.1-.4 2.5-1.7 1.9-3-1.1-3.8-1.1-3.6.2.2.7-.4 1-1.2.7-2.4-1-1.7-2.4 1.5-3.5 1.7-.6 3-1.5 3-2.1 0-.5-.4-.6-1-.3-.5.3-1-.1-1-.9 0-.9.5-1.6 1-1.6.6 0 1-.5 1-1 0-.6-.7-1-1.5-1s-1.5.5-1.5 1.1c0 1.8-4.9 5.9-6.9 5.9-2.1 0-4.4-2.3-4.8-4.9-.6-3.6.8-6.3 4.2-7.7 3.6-1.5 4.4-2.9 2.3-3.7-1-.4-1-.8.1-1.5.7-.5 1-1.5.7-2.1-.9-1.4-5.6-1.4-5.6 0m1.3 4.3c2.1-.4 2.1-.4.2.5-1.4.7-1.5 1-.5 1 1.3.1 1.3.2 0 1.1-1.5.9-2.9-.8-2.9-3.5.1-.6.3-.5.5.1.3.7 1.5 1 2.7.8m-3.3 2c0 .3-.4.8-1 1.1-.5.3-1 .1-1-.4 0-.6.5-1.1 1-1.1.6 0 1 .2 1 .4m-.7 14.5c.2 1 .1 2.5-.4 3.2-1 1.6-1 1.6-1.2-2.8-.2-3.3.7-3.6 1.6-.4m9.6 4.8c.1.7-.4 1.3-1 1.3s-.9-.6-.6-1.4.1-1.6-.5-1.8c-.7-.3-.8-1-.3-1.8.7-1.1 1-1 1.6.6.4 1 .8 2.5.8 3.1M579 513c-.6 1.1-.9 2.4-.6 2.9.3.4-.1.8-.9.8s-1.1-.5-.8-1-.1-1.4-.8-1.9c-1.1-.7-.9-.8.5-.4q1.95.75 1.2-.9c-.3-.9 0-1.5 1-1.5 1.2 0 1.3.4.4 2m7.4 2.6c.3.8.2 1.2-.4.9s-1-1-1-1.6c0-1.4.7-1.1 1.4.7m29.4-24.7c-.4 2.7-.3 2.8 1.9 1.8 1.8-.8 2.7-.7 4.1.6 1 1 2.1 1.5 2.4 1.2.2-.3.5.1.5.7 0 .7.4 2.2.9 3.2.6 1.5.4 1.7-.7 1.1-1.4-.9-1-.3 1.9 3.5.3.4-.3-7.8-.7-9.8-.1-.2-.9-.2-1.8 0-1 .2-1.8-.2-1.8-.9 0-1.6-1.5-2.9-4.1-3.7-1.8-.6-2.2-.2-2.6 2.3"/><path d="M619 495c-.8.5-1.7.7-2.1.4-.4-.2-.9.2-1.2 1s.4 2.1 1.7 2.9c2.2 1.5 2.3 1.4 1.8-.9-.5-2.6.7-3.1 2.6-1.2.8.8 1.2.8 1.2.1 0-1.8-2.5-3.3-4-2.3m-52 7.7c0 1.1.7 2 1.5 2 1.2 0 1.2-.3.3-1.6-.7-.9-1.4-1.8-1.5-2-.2-.2-.3.5-.3 1.6m32 .7c0 .8.4 1.7.9 2s.7 1.5.4 2.5c-.6 2.3 1.4 6.4 2.7 5.6.6-.3.7 0 .4.8-.6 1.7 3.6 3.8 8.9 4.4 4.4.6 9.7-1.3 9.7-3.4 0-.8.4-1.2.9-.9 1.1.7 3.6-2.2 2.7-3.1-.4-.4-1.1-.1-1.5.6-.5.8-1.4 1-2.2.6-.8-.5-1.1-.5-.7-.1.3.4-.1 1.6-1 2.6-1.2 1.4-1.9 1.7-2.9.8-1-.8-1.3-.6-1.3.6 0 .9-.7 1.6-1.6 1.6-1 0-1.4-.7-1.2-2.2.2-1.3-.2-2.3-.9-2.3-.6 0-1.5-.3-1.9-.8-1.2-1.2-2.2-.8-2.9 1.3-1 3-2.5 2.4-2.5-1.1 0-1.7-.4-2.8-1-2.4-.5.3-1 .1-1-.4 0-.6.3-1.1.8-1.1.4 0 .8-1.6.9-3.5.2-3.3 0-3.5-2.8-3.5-1.9 0-2.9.5-2.9 1.4m20.3.1c0 .8.6 1.5 1.4 1.5.7 0 1.3-.7 1.3-1.5s-.6-1.5-1.3-1.5c-.8 0-1.4.7-1.4 1.5m5 1c0 .8.4 1.5.9 1.5.4 0 .8.5.8 1.1 0 .5-.4.8-.8.5-.5-.3-.9.1-.9.9s.6 1.5 1.4 1.5c.7 0 1.3-1.1 1.3-2.4s-.6-2.9-1.3-3.5c-1-.8-1.4-.7-1.4.4m-95.8.5c.3.5.8 1 1.1 1 .2 0 .4-.5.4-1 0-.6-.5-1-1.1-1-.5 0-.7.4-.4 1"/><path d="M605.5 505.8c.6.4 2.1 2.2 3.3 3.9 2 2.9 2.5 3.1 4.3 2 1.7-1 2.2-.9 3.4.7 1.3 1.7 1.4 1.7 2.1-1 .4-1.6 1.2-3.2 1.8-3.6s.7-1 .4-1.4c-1.2-1.1-3.8 2.4-3.2 4.3.5 1.7.5 1.7-.6 0-.6-.9-2.2-1.7-3.5-1.7-1.4 0-3.4-.9-4.5-2s-2.6-2-3.2-2c-.9 0-.9.3-.3.8m-31.2 35.9c1.5.2 3.7.2 5 0 1.2-.2 0-.4-2.8-.4-2.7 0-3.8.2-2.2.4m1 14c.9.2 2.3.2 3 0 .6-.3-.1-.5-1.8-.5-1.6 0-2.2.2-1.2.5"/></g><g fill="green" stroke-width="0"><path d="M537 456.8c0 1 3.8 5.2 4.6 5.2.4 0 .3-1.1 0-2.5-.4-1.7-.2-2.5.7-2.5 2 0 2.8 1.2 1.7 2.5-1.2 1.5-.3 4.5 1.4 4.5.7 0 1.3-.7 1.3-1.5s-.4-1.2-.9-.9c-.4.3-.8 0-.8-.6 0-.7 1.2-.9 3.1-.6 2.5.4 2.8.2 1.9-.9-.6-.8-1.8-1.1-2.6-.8s-1.4.2-1.4-.1c0-.4.9-1 2-1.4 1.3-.5-.3-.8-4.5-1-3.6-.1-6.5.2-6.5.6"/><path d="M552.4 460.4c-.4 1.7-1.1 2.3-2.5 2.1-1-.2-1.9 0-1.9.6 0 .5 1.4.8 3 .7 1.7-.1 3-.7 3-1.2s.3-.6.7-.3c.3.4-.2 1.5-1.1 2.6-1.6 1.8-1.6 2 .6 3.5 1.9 1.4 2.1 1.8.8 2.6-1.3.9-1.3 1 0 1 .8 0 2.3-1.5 3.3-3.2l1.9-3.3-2.3 2c-2 1.8-2.2 1.8-1.6.2.5-1.2.3-1.6-.5-1.1s-.9.2-.5-.9c.4-1 1-2.4 1.3-3.2.6-1.4-.6-2-3-1.6-.5.1-.4-.5.4-1.3.8-1.1.9-1.6.1-1.6-.6 0-1.3 1.1-1.7 2.4m-20.3-.6c.1.4.1 1.4 0 2.2-.1 1.3-.3 1.3-1.2 0s-1-1.2-.5.3c.3 1 0 2-.7 2.3-1.5.5-1.4 7.1.2 8.7.8.8 1.1.4 1.1-1.4 0-1.9.2-2.1 1-.9.8 1.3 1 1.2 1-.3 0-.9-.6-1.7-1.2-1.7-.9 0-.8-.4.2-1 1.3-.8 1.3-1-.2-1q-1.65 0-1.2-1.5c.4-.8 1-1.5 1.6-1.5.5 0 .6.4.3 1-.4.6.1.7 1.1.3 1.4-.5 1.6-.3 1.1 1.1-.4 1-.3 1.5.3 1.1s.9-1.3.8-2c-.2-.8.2-1.4.7-1.3.6 0 .9.3.8.7s.4.8 1.2.8 1.3-.5 1.2-1.1.6-1 1.6-.8c.9.2 1.7-.1 1.7-.5 0-.5-.9-.9-2-1s-2 .3-2 1c0 .8-.3.8-1.2-.1-.7-.7-1.7-.8-3-.1-2 1.1-2.1.9-1.2-1.5.3-.9 1.1-1.3 1.8-.9.6.3.7.2.3-.2-.9-1.1-3.7-1.6-3.6-.7M577 469c-1.3.8-1.2 1 .3 1 .9 0 1.7-.5 1.7-1 0-1.2-.1-1.2-2 0m5.2-.6c.3.4 0 1.9-.8 3.4-1.7 3.3-.5 4.6 3 3.2 1.5-.5 3.4-1 4.3-1 1.3 0 1.3.3.3 1.5-.7.9-.8 1.5-.2 1.5 1.7 0 .6 3.3-1.4 4.1-1.7.7-1.6.8.5.8 2.3.1 2.3.2.8 1.9-1.2 1.3-1.3 1.9-.5 1.9.7 0 2.2.4 3.2.9 1.4.5 1.7.4 1.2-.5-.5-.7-.8-4.1-.8-7.6 0-6-.1-6.3-2.4-6-1.6.1-2.4-.3-2.4-1.3 0-.8-.3-1.2-.7-.8-.5.4-.8 1.2-.8 1.7s-.4.8-1 .6c-.5-.1-.8-.9-.7-1.9.2-.9-.3-2-1-2.4s-1-.4-.6 0m31.5 1.2c.2.6-.1 1.5-.8 2-.8.5-1 .3-.4-.7.7-1.2.6-1.2-.7-.1-1.3 1-1.7 1-2.2 0-.3-.7-.3-.2 0 1.2l.5 2.5-2-2.3c-1-1.2-2.1-2.2-2.3-2.2s-.5 2.6-.6 5.8c-.2 4.4.1 5.9 1.1 5.9s1.3-1.2 1.2-3.9c-.1-2.1.2-3.8.6-3.8.5 0 .9.6.9 1.2 0 .7.5.5 1.1-.5 1.2-2.1 2.9-2.2 2.9-.1 0 .9-.5 1.2-1.2.8-.6-.4-.8-.3-.4.4 1 1.7 4.4 1 5-1.2.3-1 .1-2.7-.4-3.6-.5-1-.7-1.9-.5-2.2.3-.3-.1-.5-.9-.5s-1.2.6-.9 1.3m-55 .1c-.4.3-.7 1.1-.7 1.7s.5.5 1.2-.2c.6-.6.9-1.4.7-1.7-.3-.3-.9-.2-1.2.2m60.3.3c0 .5.5 1 1.1 1 .5 0 .7-.5.4-1-.3-.6-.8-1-1.1-1-.2 0-.4.4-.4 1m-2 .5c0 .6.5 1.6 1.1 2.2s1.1 3 1.1 5.2.3 4.3.9 4.6c.5.4.9.1.9-.6s.7-.4 1.6.7c.8 1 1.3 1.3.9.6s0-1.2.9-1.2c2 0 2.9-1.7 1.5-2.6-.8-.4-.9-.3-.5.4s.2 1.2-.3 1.2c-.6 0-1.2-1.4-1.2-3-.2-5.3-.4-5.5-2.9-5.9-1.4-.1-2.8-.8-3.2-1.5-.5-.7-.8-.7-.8-.1m5.4 4c-.6 1.6-2.4 2.1-2.4.7 0-1.1 1.1-2.2 2.1-2.2.5 0 .6.7.3 1.5m-45-2.8c.4.7.3 1.3-.3 1.3s-.8.7-.4 1.6c.5 1.5.7 1.5 1.6-.1.6-1.2.5-2.1-.3-2.8-1-.9-1.1-.9-.6 0m-52 2.5c0 1.6.5 2.3 1 1.8s2.3-.7 4-.4l3.1.6-2.9-1.6c-1.5-.9-3.2-1.4-3.6-1.1-.5.3-1-.1-1.3-.7-.2-.7-.4-.1-.3 1.4m47.6.2c0 2.6 1.5 4.3 2.4 2.7.4-.5.2-1.2-.4-1.6s-.8-1-.5-1.5.1-1.1-.5-1.5-1 .4-1 1.9"/><path d="M526.9 478.1c-.9 1.8-1.3 1.9-2.1.8-.8-1.2-.9-1.1-.5.1.2.8 1 1.5 1.8 1.5s1.5.4 1.6.9c.1.9 2.3 2.6 3.5 2.6.3 0 .5-.8.3-1.8-.2-.9-.4-2.5-.4-3.5-.1-1-.5-1.6-1.1-1.2-.5.3-.6 1.3-.3 2.2.4 1.1.3 1.4-.6.9-.6-.4-.9-1.6-.6-2.7.8-2.6-.2-2.4-1.6.2m43.3-1.2c-1.1.7-1.1.9.2 1.4 1 .4 1.6.1 1.6-.8 0-1.7-.1-1.7-1.8-.6m22.5 7.2c.7.7 1.5 1 1.8.7s-.2-.9-1.2-1.2c-1.4-.6-1.5-.5-.6.5m12.3 4.1c0 2.8.3 4.8.7 4.5.3-.4 1.2.1 2 1.1 1.1 1.5 1.2 1.3.3-1.2-.6-1.6-.8-3.1-.6-3.4.3-.2.1-1.4-.5-2.5-.8-1.4-.8-1.8 0-1.3.6.4 1.1 0 1.1-.8 0-.9-.7-1.6-1.5-1.6-1.1 0-1.5 1.2-1.5 5.2m-77.9-3.5c.4 2.5-.2 3.5-1.4 2.5-1-.8-1.3-.7-1.4.7s.4 1.7 2.3 1.3c1.3-.2 2.1-.9 1.7-1.5-.3-.6-.1-.7.5-.3 1.8 1.1 1.4 2-1 3.1-1.4.6-2.4 2.1-2.6 3.7-.3 2.3.1 2.8 1.8 2.8 1.4 0 1.9-.4 1.4-1.3s-.3-.9.7.1c1.2 1.1 1.2 1.4 0 2.1-.9.6-1 1.1-.2 1.5 1.7 1.1 1.3 2.4-.9 2.8-1.7.3-1.8.6-.7 2.7 1.6 3.2 3.7 3.9 3.7 1.2 0-1.2.5-2.1 1.1-2.1.5 0 .7.5.3 1.2-.4.6-.3.8.2.5.6-.3 1.5.7 2.1 2.4.8 2.2.8 2.9 0 2.9-.7 0-.4.5.6 1.1.9.5 1.7 1.8 1.7 2.7 0 1.2.6.8 2-1.3 2.1-3.1 2.7-2.8 1 .5-.8 1.6-.7 1.8.9 1.5 1-.2 3.1.3 4.6 1.1 2.4 1.2 2.6 1.2 1.6 0s-.9-2.1.5-4.3l1.8-2.8-2.4 2c-1.4 1.1-2.8 2.4-3.2 3-.4.5-1.2-.3-1.8-1.9-1-2.8-1.1-2.8-3.1-1-1.9 1.7-1.9 1.7-1.3 0 .4-1 1.6-2.2 2.8-2.6 2.1-.9 2.1-.9.1-.9-1.2-.1-2.6.4-3.2 1-.8.8-1.3.3-1.8-2-.4-1.7-1.1-3.1-1.7-3.1s-.8-.7-.4-1.5c.3-.8.1-1.5-.3-1.5-.5 0-1.1.6-1.4 1.2-.2.7-.6-.8-.8-3.5-.2-2.6-.1-4.7.2-4.7.4 0 .3-1.7-.1-3.7-.5-2-.8-4.1-.7-4.7.1-.5-.6-1.2-1.6-1.4s-1.7 0-1.6.5m2.9 8.1c0 .4-.9.8-2 .9-1.6.1-1.7-.1-.7-1.2 1.2-1.3 2.7-1.1 2.7.3m0 12.2c0 .5-.2 1-.4 1-.3 0-.8-.5-1.1-1-.3-.6-.1-1 .4-1 .6 0 1.1.4 1.1 1m23.5-20c-.3.6-1 .8-1.4.6-.4-.3-.7.7-.6 2.2s-.3 3.1-.9 3.5c-.7.5-.4.7.7.3 1.2-.4 2.1.2 2.9 1.9s1.7 2.3 3.2 2c1.2-.2 2.4-.4 2.7-.4.5-.1.4-1.7-.4-7.8-.2-1.3-.6-2.5-1-2.8s-.5-.2-.2.1c.2.4 0 1.6-.6 2.7-.7 1.2-.7 1.7-.1 1.3.6-.3.9.4.8 1.8-.1 2.5-2.7 2.9-3.4.5-.3-1.1-.1-1.1.7.1.8 1.1 1 .5.7-2.5-.4-3.9-1.8-5.6-3.1-3.5m1.4 2.2c-1.6 3.1-1.6 3.1-2.3 1.3-.3-.9-.2-1.3.4-1s1-.1 1-.9c0-.9.5-1.6 1-1.6.7 0 .7.8-.1 2.2m-9.9-.3c0 .6.4 1.3 1 1.6s.7-.1.4-.9c-.7-1.8-1.4-2.1-1.4-.7m3.6.4c.3 1 .9 1.5 1.2 1.2s0-1.1-.7-1.8c-1-.9-1.1-.8-.5.6m40 1.2c.4.8 1.1 1.5 1.8 1.5.6 0 .2.7-.8 1.5-1.1.8-1.5 1.5-.9 1.5s1.3.9 1.6 2.1c.4 1.6.3 1.8-.9.8-1.1-.9-1.4-.8-1.4.5 0 .9.8 1.6 1.8 1.6 1.2 0 1 .5-1 1.8-1.7 1-2.8 2.5-2.7 3.7.1 1.7.2 1.7.6.2.5-1.8 3.3-2.4 3.3-.7 0 .5-.4 1-1 1-.5 0-1 .7-1 1.6 0 .8.5 1.2 1 .9.6-.3 1-.2 1 .3 0 .6-1.3 1.5-3 2.1-3.2 1.1-3.9 2.5-1.5 3.5.8.3 1.4 0 1.2-.7-.2-1.3.6-1.3 3.6-.2 1.3.6 1.7.2 1.7-1.9 0-1.4.5-2.6 1-2.6.6 0 1-.5 1-1.1 0-.5-.4-.7-1-.4-.5.3-1 .2-1-.4 0-.5.5-1.1 1.1-1.3.9-.3 1.3-3.9 1-9.1 0-1-.5-1.5-1.1-1.2-.5.3-1 .1-1-.4 0-.6.5-1.1 1-1.1 2 0 1-3.8-1.2-4.4-3.4-.9-3.8-.7-3.2.9m4.9 7.4c.3.5.1 1.2-.5 1.6-.5.3-1-.1-1-.9 0-1.8.6-2.1 1.5-.7m-.1 5.6c-.4.8-1 1.3-1.5 1-.4-.3-.6-1.2-.3-2 .4-.8 1-1.3 1.5-1 .4.3.6 1.2.3 2"/><path d="M612.9 488.8c-.1.9-.1 2-.1 2.3.1.3-.6.6-1.4.6-.7 0-1.4-.7-1.4-1.4 0-.8.5-1.1 1-.8.6.3 1 .1 1-.5 0-1.7-2.4-.6-2.8 1.2-.2.9.7 2.6 2 3.9 1.3 1.2 1.6 1.9.8 1.5s-.6 0 .5.9c1.8 1.4 2.1 1.4 3.2-.2.7-.9 1.3-1.4 1.3-1s.8.3 1.8-.2c1.9-1 4.2.2 4.2 2.3 0 .6-.5.5-1.2-.2-2-2-2.8-1.4-2.6 1.8.1 1.7.8 3 1.5 3s1.3.7 1.3 1.5-.8 1.5-1.7 1.5c-1.5 0-1.6.2-.3 1 1 .7 1.2 1.2.4 1.7-.6.5-1.4 2.1-1.8 3.7-.7 2.7-.8 2.7-2.1 1-1.2-1.6-1.7-1.7-3.4-.7-1.8 1.1-2.3.9-4.3-2-1.2-1.7-2.7-3.5-3.3-3.9-.6-.5-.6-.8.2-.8.7 0 1-.7.6-1.7-.6-1.5-.7-1.4-1.3.3-.4 1-.6 2.7-.4 3.6.1 1-.1 1.8-.7 1.8-.5 0-.9.5-.9 1.1 0 .5.5.7 1 .4.6-.4 1 .7 1 2.4 0 3.5 1.5 4.1 2.5 1.1.7-2.1 1.7-2.5 2.9-1.3.4.5 1.3.8 1.9.8.7 0 1.1 1 .9 2.3-.2 1.5.2 2.2 1.2 2.2.9 0 1.6-.7 1.6-1.6 0-1.3.3-1.4 1.4-.5 1.1 1 1.7.8 2.5-.6.9-1.6 1.2-1.6 2.1-.3.5.8 1 1 1 .4 0-.5-.6-1.6-1.2-2.3-1.1-1.1-1-1.3 0-.7.6.4 1.9 0 2.8-.8 1-1 1.1-1.6.3-1.6s-.8-.4.2-1.6c.7-.9.9-1.8.3-2.2-.5-.4-1-1.3-1.2-2.1-.3-1.2 0-1.2 1.2-.1 2.1 1.7 2 .1-.1-2.9-1-1.6-1.2-2.1-.3-1.6 1 .6 1.2.4.6-1.1-.5-1-.9-2.9-1-4.1-.1-1.3-.7-2.8-1.3-3.4-1.4-1.4-1.3.7.2 3.1.5.9 0 .8-1.3-.4-1.8-1.5-2.7-1.7-4.5-.9-2.2 1-2.3.9-1.9-1.7q.45-2.7-1.2-3.3c-1.1-.4-1.6-.1-1.7 1.1m-30.4.1c.4.8.2 1.7-.5 2.1-1.1.7-1 1.1.2 2.4 1.4 1.4 1.5 1.2 1.4-1.4-.1-1.6-.5-3.2-1-3.7s-.6-.2-.1.6m-5.9 1.3c.3.5 1 .6 1.5.3 1.3-.9 1.1-1.2-.6-1.2-.8 0-1.2.4-.9.9M570 494c-2.3 2.3-2.7 7.9-.7 9.9 1 1 .9 1.2-.2.9-.8-.2-1.6.5-1.8 1.4-.3 1.2.1 1.5 1.6 1.1 1.8-.5 2.7-2.6 2.2-5.5 0-.4.7-.4 1.6-.1 1.2.5 1.4.3.8-.7s-.4-1.2 1.1-.6c1.4.5 1.6.4.8-.4-.7-.7-1.9-.8-3.8-.1L569 501l1.5-3c.8-1.6 1.6-3.3 1.8-3.7.1-.5.5-.7 1-.6.4.2.7-.2.7-.7 0-1.6-1.8-1.2-4 1m5.1-1.5c0 2.7 1.4 4.4 2.9 3.5 1.3-.9 1.3-1 0-1.1-1 0-.9-.3.5-1 1.9-.9 1.9-.9-.2-.5-1.2.2-2.4-.1-2.7-.8-.2-.6-.4-.7-.5-.1"/><path d="M573 496.1c0 .5.5.7 1 .4.6-.3 1-.8 1-1.1 0-.2-.4-.4-1-.4-.5 0-1 .5-1 1.1m-16.8.6c-.6.3-1 .8-.7 1.3.3.4-.2 1.3-1 2s-1.5 1.7-1.5 2.2 1.2-.5 2.6-2.2c2.7-3.2 2.9-4.1.6-3.3m2 1.8c-.8 1.6-.8 2.5-.1 2.5.6 0 .6.7-.1 2-.9 1.6-.8 1.8.6 1.3 1-.4 1.4-1.4 1.1-2.9-.2-1.3-.1-2.4.3-2.4s.7-.7.7-1.5c0-2.3-1.2-1.8-2.5 1m-26.1.1c0 1.1.3 1.4.6.6.3-.7.2-1.6-.1-1.9-.3-.4-.6.2-.5 1.3m-6.1.7c0 1 .8 1.7 1.8 1.7.9 0 1.3-.4.7-.8-.5-.4-1.3-1.1-1.7-1.6-.5-.5-.8-.2-.8.7m27.5 5.2c-1.1 1.3-2 2.8-2 3.2-.1.4-.7 1.9-1.4 3.2-1.1 1.9-1.1 2.2.1 1.8.7-.2 1.2-1 1-1.7-.2-1 0-1.1 1-.3.9.8 1.6.7 2.5-.2.6-.7.9-1.6.6-1.9-.4-.3-.2-.6.3-.6.6 0 1-1.4.9-3 0-3.6-.4-3.7-3-.5m1 2.5c-.3.5-1.2 1-1.8 1-.7 0-.6-.4.3-1 1.9-1.2 2.3-1.2 1.5 0m3.9-.9c-1.1 1.8-1.1 10.9-.1 11.6.6.3.7.1.3-.5-.4-.7-.2-1.2.4-1.2q1.2 0 .6-2.7c-.5-1.7-.3-2.9.6-3.4.8-.6.9-.9.1-.9-.6 0-.9-.9-.6-2 .6-2.2-.2-2.7-1.3-.9m-26 1.6c.4.8.1 1.3-.8 1.3s-1.6.7-1.6 1.5.6 1.5 1.4 1.5c1.9 0 2.9-3.1 1.5-4.4-.9-.8-1-.8-.5.1m40.3 2.6c.2 4.4.2 4.4 1.2 2.8.5-.7.6-2.2.4-3.2-.9-3.2-1.8-2.9-1.6.4m-29.4.9c-.1 1 .3 1.5 1.2 1.2 2.1-.8 2.5-3 .6-3-.9 0-1.8.8-1.8 1.8m26.2-1.1c-1.1 1.7.1 2.1 1.5.4.8-.9.8-1.5.2-1.5s-1.4.5-1.7 1.1m47.1.2c.3 1 .9 1.5 1.2 1.2s0-1.1-.7-1.8c-1-.9-1.1-.8-.5.6m-35.1.7c-.5.8-.4 1.5.3 1.8.6.2.8 1 .5 1.8s0 1.4.6 1.4c1.2 0 1.3-1.6.2-4.4-.6-1.6-.9-1.7-1.6-.6m-3.9 1.5q.75 1.65-1.2.9c-1.4-.4-1.6-.3-.5.4.7.5 1.1 1.4.8 1.9s0 1 .8 1 1.2-.4.9-.8c-.3-.5 0-1.8.6-2.9.9-1.6.8-2-.4-2-1 0-1.3.6-1 1.5m7.4 2.4c0 .6.4 1.3 1 1.6s.7-.1.4-.9c-.7-1.8-1.4-2.1-1.4-.7m-12 1c0 .6.5 1.3 1 1.6.6.3 1-.1 1-.9 0-.9-.4-1.6-1-1.6-.5 0-1 .4-1 .9"/></g><path fill="#408040" fill-opacity=".2" d="M612.8 508.7c.6.2 1.8.2 2.5 0 .6-.3.1-.5-1.3-.5s-1.9.2-1.2.5"/><path fill="#408080" fill-opacity=".4" d="M453.3 501c0 4.1.2 5.8.4 3.7.2-2 .2-5.4 0-7.5-.2-2-.4-.3-.4 3.8m-56 4.7c2 .2 5.4.2 7.5 0 2-.2.3-.4-3.8-.4s-5.8.2-3.7.4"/><path fill="#004080" fill-opacity=".7" d="M497.8 482.7c.7.3 1.6.2 1.9-.1.4-.3-.2-.6-1.3-.5-1.1 0-1.4.3-.6.6m45.5 87c.9.2 2.3.2 3 0 .6-.3-.1-.5-1.8-.5-1.6 0-2.2.2-1.2.5"/><g fill="#004080" fill-opacity=".9" stroke-opacity=".9" stroke-width="0"><path d="M396.5 457.4c-1.1.8-1.6 1.9-1.2 3 .5 1.1.3 1.5-.5 1-.7-.5-.9 0-.6 1.4.3 1.2.2 2.2-.3 2.4s-1.1 1.4-1.4 2.7c-.3 1.9-.1 2.2 1.5 1.8 1.3-.3 1.8-.1 1.3.6-.4.6.2.8 1.5.5 1.2-.4 2-.2 1.6.3-.3.5-1.1.9-1.9.9s-1.2.8-1 2c.2 1.3-.2 2-1.1 2-.8 0-1.4.8-1.4 1.7 0 1.5.2 1.6 1 .3 1.3-2.1 1.3-.3-.1 2.2-.8 1.5-.8 1.9 0 1.4.6-.4 1.1-.2 1.1.3 0 .6-.6 1.1-1.2 1.1-.9 0-.9.3.1.9.8.5 1.1 1.6.8 2.5-.4.9-.2 1.6.2 1.6.5 0 1.2-1.9 1.6-4.3.4-2.3 1.1-5 1.7-6 .6-1.2.5-1.7-.4-1.7s-1-.3-.2-.8c2.5-1.6 2.8-11.2.3-9.6-.5.3-.9-.2-.9-1 0-2.2 1.6-2.8 3-1.1.7.8 1.6 1.2 2.1.9s.9.2.9 1.1-.4 1.4-.9 1c-.5-.3-1.3-.1-1.6.5-.4.6-.1.9.6.8.6-.2 1.4.3 1.7 1.1s0 1.1-.7.7c-.6-.4-1.1-.2-1.1.3 0 .6.5 1.1 1.1 1.1.5 0 .7.5.4 1-.7 1.1 1.5 12 2.4 12 .3 0 .7 2.7.9 6l.3 6-3.3.1c-1.8.1-2.5.3-1.5.6 2.4.6 2.2 2.3-.3 1.8-1.1-.2-2.2 0-2.5.6-.4.5 0 .9.8.9s1.7.8 1.9 1.8c.7 2.5-2.9 2.6-3.7.1-.4-1-1.2-1.9-1.8-2-.7 0-.2-.4 1.1-.9 3.2-1.3 2.7-2.5-1-2.8-1.8-.1-2.8.1-2.3.5 1.4 1 1.8 6.3.5 6.3-.6 0-1 .4-1 1s3.3 1 8 1c5.7 0 8 .4 8 1.2 0 .9.4.8 1.1-.2.9-1.2 1-1.1.6.7-.3 1.2 0 2.4.7 2.7.8.3.8.5 0 .5-1.2.1-.5 5.6 1 8 .8 1.2 8.6 1.6 8.5.3-.1-1.6-1.8-4.6-1.8-3.3-.1.8-.8 1.1-2 .8-1.5-.4-1.8-.1-1.4 1.2.4.9.2 1.2-.2.8-1-.8-1.5-14.4-.8-16.4.3-.7 1-1 1.6-.6.6.3.7.1.3-.5-.4-.7-.9-2.1-1.2-3.2-.2-1.1-.6-2.8-.9-3.8-.3-.9-1-3.8-1.7-6.5-.6-2.7-1.7-4.7-2.5-4.7-1 0-1.1.5-.4 1.9.6 1 .8 2.1.4 2.4-.3.4 0 1.3.6 2.1.7.8 1 2 .7 2.5-.4.5-.2 1.2.4 1.6.5.3 1 1.2 1 1.8 0 .8-.3.8-.9-.1-.7-1.1-.9-1.1-1.4.2-.4.9-.1 1.6.5 1.6s.5.6-.3 1.7c-1.2 1.5-1.2 1.6.6.9 1.6-.6 1.8-.5.8.5-.7.7-1.3 2.1-1.3 3.1 0 2-2.9 2.5-3.1.5-.3-3.6 0-9.7.4-10.5.3-.4.2-1.4-.3-2.2s-.5-2.2.1-3.2c.6-1.1.6-1.8 0-1.8-1.1 0-.1-8.4 1.1-8.8.5-.2.3-1.1-.4-2-1-1.2-1-1.4-.1-.8.9.5 1.1.2.7-.9-.4-.9-1.3-1.4-2.2-1-1.2.4-1.2.3-.3-.9.6-.8 1-2.5.7-3.7-.3-1.3-.7-3.5-1-4.9-.6-2.9-4-6-6.5-6-1 0-2.6.6-3.6 1.4m5.5 3.1c.5-.3 1.2 0 1.6.6.4.8.3.9-.4.5-.8-.4-1.2 0-1.2 1.1-.1 1.6-.3 1.5-2-.6-1.1-1.3-2-1.7-2-1s-.3.9-.7.5c-.5-.4.1-1.4 1.2-2.2 1.8-1.3 2-1.3 2.3.1.2.8.7 1.3 1.2 1m-4 7.5c0 .5-.2 1-.4 1-.3 0-.8-.5-1.1-1-.3-.6-.1-1 .4-1 .6 0 1.1.4 1.1 1m8.1 32.7c-1.2 2-1.4 1.4-.5-1.2.4-.9.9-1.4 1.1-1.1.3.2 0 1.3-.6 2.3m94.4-31.5c-3.7 1.3-5.6 2.8-5 3.8.3.4-.3 1.1-1.2 1.4-1.5.6-1.5.8-.3 1.6 1.1.7 1.2 1 .2 1-.7 0-1 .5-.6 1.1.4.8.9.7 1.4-.2.7-1 1.1-1 2.4 0 .9.8 1.7 1 1.7.5.1-.5.2-1.5.3-2.3 0-.8.9-1.5 2-1.7 1.4-.2 1.6 0 .7.9-1.3 1.3-1.5 4.1-.1 3.2 2-1.2 7.8-1.2 7.3.1-.2.7.1 1.5.7 1.9s1.1.1.9-.6q-.45-3.9 1.2-3.9c.6 0 .8.7.5 1.6-.3.8-.2 1.2.4.9s1 0 1 .7.7.2 1.6-1c1.4-2.1 1.4-2.5-.1-4.8-2.6-4.1-9.9-6.1-15-4.2m4.4 2.8c.9 0 2.3-.6 3-1.3 1-1 1.1-.9.6.4-.4 1 0 1.9.9 2.2 1 .4 1.6.1 1.6-.9 0-.8.5-1.2 1-.9.6.4.8 1.1.5 1.6-.4.5.1 1.2.9 1.5.9.3 1.6 1.1 1.6 1.6 0 .6-.6.5-1.5-.2-.8-.7-2.2-1-3-.6-.9.3-1.3.2-1-.4s.1-1-.4-1c-.6 0-1.1.4-1.1.8s-.9.8-2 .9c-1.2.1-2-.4-2-1.3 0-1.8-4.9-1.1-6.1.8-.4.7-1.1.9-1.6.4-.4-.4 0-1.2 1-1.7.9-.6 1.4-1.5 1.1-2.1-.5-.7-.1-.9.9-.5.9.3 2 .1 2.4-.5.5-.9.8-.9 1.1 0 .2.7 1.1 1.2 2.1 1.2m-73.2-1.8c-1.5.5-2.5 1.4-2.1 1.9.3.5-.1.9-.9.9-1.8 0-2.8 2.4-2.1 4.7.4 1.4.3 1.5-.4.5-.7-1.1-1-1.1-1.5.2-.4 1-.1 1.6.8 1.6.8 0 1.5.7 1.5 1.6 0 1.3-.3 1.4-1.5.4s-1.6-.9-2.1.5c-.8 1.9 1.3 3.8 3.4 3 .7-.3 1 0 .7.5-.3.6-1.7.7-3.1.4l-2.5-.6.2 8.6c.3 11.4 1.6 16.2 6 20.8 3 3.2 4.2 3.8 7.7 3.8 3.4 0 4.5-.5 6.3-3 1.2-1.6 2.6-2.7 3.1-2.4 1 .6 4-2.1 3.2-2.9-.3-.3-1.3-.3-2.2 0-1.1.3-1.3.2-.6-.4.6-.4 1-2.6 1-4.7-.1-2.2.4-4.1 1-4.3s1.1.9 1.2 2.7c0 1.6-.4 3-.9 3-.6 0-.4.7.5 1.5 2.1 2.1 2.4 1.9 2.1-1.5-.1-1.7 0-2.8.4-2.5.8.9.9 7.5 0 6.9-.4-.2-1.3.4-2 1.3-1.2 1.4-1.1 1.5 1 .8 2.1-.6 2.2-.5 1 .8-.9.9-1.8 1.2-2.5.6-.6-.5-1.4-.6-1.7-.2-1.1 1 3.2 3.5 4.6 2.7.9-.6.9-.5 0 .7-.7.9-.9 2-.5 2.5s0 .2-.9-.8c-.9-.9-2-1.4-2.4-1-.5.4-.5.1-.1-.6.4-.6.3-1.2-.3-1.2s-1 2.1-.9 4.7c0 3.1.3 4.1.8 2.9.6-1.9.7-1.9 1.3.3.3 1.5 0 2.4-.9 2.8-.8.3-1.3 1.2-1 1.9s.1 1.6-.4 1.9c-.6.4-1 1.2-1 2 0 1.5 2.6 1.3 6-.5 2-1.1 2.1-1.7 1.9-25.8-.2-25.4-.4-28.4-2.1-26-.7.9-.8.7-.5-1 .3-1.3.1-2-.5-1.6s-.8-.1-.4-1.2c1.1-3.8-5-8.4-10.9-8.3-2.2 0-5.2.5-6.8 1.1m6 3c-.3.8-.6.5-.6-.6-.1-1.1.2-1.7.5-1.3.3.3.4 1.2.1 1.9m6.3 5.1c0 .5-.4.5-1 .2-.5-.3-1 .1-1 .9 0 .9.4 1.6.9 1.6s1.1 1.4 1.5 3.1c.3 1.7 1 2.8 1.4 2.5.5-.3 1.9.6 3 1.9 1.2 1.4 1.9 2.5 1.6 2.5s-.2.5.2 1.2c.9 1.4 1.3 8.9.5 10.3-.3.5-.8-.1-1.1-1.5-.4-1.4-1.3-2.4-2.2-2.4-1.1.1-1.4-.5-1.1-2 .4-1.7.3-1.8-.6-.6-.6.8-1.1 2.7-1.1 4.2 0 3.6-4.3 8.5-8 9-1.6.3-2.8.2-2.5 0 .2-.3-.5-1.6-1.5-3-1.1-1.3-2-3.1-2-3.8 0-.8-.5-1.4-1-1.4-.6 0-.8-1-.6-2.3.3-1.2.8-4.8 1.1-8.1.4-3.2 1.3-6.9 2.2-8.2 1.5-2.4 5.4-4.1 7-3.1.5.3.9-.3 1-1.3.1-1.3-.4-1.8-1.8-1.5-1 .2-1.9-.1-1.9-.7 0-.5.7-.7 1.6-.4 1.2.5 1.4.1.9-1.7-.5-1.9-.3-1.8 1.9.8 1.4 1.6 2.6 3.4 2.6 3.8m0-5.3c0 .5-.2 1-.4 1-.3 0-.8-.5-1.1-1-.3-.6-.1-1 .4-1 .6 0 1.1.4 1.1 1m-11.2 3.1c-.7.4-.4.8.7 1 1.7.4 1.7.5 0 1.9-1.1.8-1.6 1-1.2.3.4-.6.3-1.4-.3-1.8s-.8-1.1-.5-1.6c.4-.5.1-.9-.6-.9-.6 0-.9.8-.6 2 .3 1.1.1 1.8-.4 1.4-1.5-.9-1-3.2.8-4.3 2-1.1 4 .9 2.1 2m18.2 6.1c1.3-.3 1.3-.1.1 1-1.1 1-1.4 1-1.8 0-.3-.6-.9-1.2-1.4-1.2-.6 0-.5.8.1 2 .8 1.6.8 1.8-.4 1.4-1.4-.5-1.5-1.4-.6-8.9.1-.6.7.6 1.4 2.5.7 2.2 1.8 3.4 2.6 3.2m-20.2.8c-.7 1-1.4 1.7-1.7 1.5-.4-.4 1.8-3.5 2.5-3.5.2 0-.1.9-.8 2m-3.8 6.7c0 .7-.9 1.3-2 1.3s-2-.6-2-1.4c0-.9.9-1.4 2-1.3s2 .7 2 1.4m0 3.8c0 .8-.4 1.5-.8 1.5-.5 0-.9-.7-.9-1.5s.4-1.5.9-1.5c.4 0 .8.7.8 1.5m0 4.6c0 .5-.4.9-1 .9-.5 0-1-.7-1-1.6 0-.8.5-1.2 1-.9.6.3 1 1 1 1.6m0 2.4c0 .7-3 1.3-3.4.7-.3-.4.4-.9 1.5-.9 1-.1 1.9 0 1.9.2m.1 4.9c.6-.3.5.3-.2 1.5-1.6 2.4-2.9.9-2.1-2.3.5-1.8.7-1.8 1-.3.2.9.8 1.4 1.3 1.1m3.2-.1c.3.8.2 2-.3 2.6-.5.9-.7.4-.7-1.3 0-2.9.2-3.2 1-1.3m2.7 4.5c0 .4-.9.8-2 .9-1.6.1-1.7-.1-.7-1.2 1.2-1.3 2.7-1.1 2.7.3m10.1.2c-.7.3-.9 1.4-.6 2.2.8 2-2.1 4.9-4 4.2-.8-.4-1.5-.8-1.5-1.1s.7-.2 1.6.1c1 .4 1.5 0 1.3-1.2-.3-3.4.1-5.3 1.1-4.7.6.3 1 .1 1-.5s.5-.8 1.1-.4c.8.5.8.8 0 1.4m-11.6 4.9c.3.5.2 1.2-.3 1.5s-.9-.1-.9-.9c0-1.7.3-1.9 1.2-.6m17 6.1c.3.5.1 1-.4 1-.6 0-1.1-.5-1.1-1 0-.6.2-1 .4-1 .3 0 .8.4 1.1 1"/><path d="M445 489.6c0 .9.9 1.8 2 2.1s2 .9 2 1.4-.8.6-1.7.3c-1.1-.4-1.4-.3-.7.3.6.4 1.3 1.6 1.7 2.5.3 1 1.1 1.8 1.7 1.8.8 0 .8-.6 0-2-.7-1.4-.7-2 0-2 .6 0 .5-.8-.2-2-.7-1.1-1.9-1.8-2.7-1.5-1.1.4-1.2.3-.1-1 1-1.2 1-1.5-.4-1.5-.9 0-1.6.7-1.6 1.6m-4.5 23.4c.3.5.8 1 1.1 1 .2 0 .4-.5.4-1 0-.6-.5-1-1.1-1-.5 0-.7.4-.4 1m18.2-43.3c-.4.3-.7 7.7-.7 16.3 0 12.5.3 16 1.4 16.9 1.2 1 1.5.7 1.4-2.1-.1-1.8-.6-3.6-1.2-4-.8-.6-.8-.8.1-.8.6 0 1.1-1.5 1.1-3.5 0-1.9-.4-3.2-.9-2.9s-.9 0-.9-.5c0-.6.4-1.1.9-1.1 1.3 0 1.1-6.3-.3-7.2-.8-.5-.7-.8.2-.8.6 0 1.2-.7 1.2-1.5s-.6-1.5-1.2-1.5c-.9 0-.9-.3.1-.9.8-.5 1.1-1.6.8-2.6-.5-1.3-.2-1.6 1.5-1.3 2.7.4 3.5 2.5 1.1 3.1-1.5.4-1.5.5-.2.6 1.4.1 1.6 1.2 1.4 6.3-.2 3.9-.7 6.2-1.4 6-.6-.1-1.1.2-1.1.8 0 .5.6 1 1.3 1 .6 0 1.2 1.1 1.2 2.5s-.4 2.5-.8 2.5c-.5 0-.5.5-.1 1.2.5.7.8 2.7.7 4.4 0 2.3.3 3.1 1.3 2.7.8-.3 1.1-.9.8-1.4s-.5-8.2-.5-16.9v-16h-3.3c-1.8 0-3.6.3-3.9.7m23.9 1.5c1.2 4 1.1 7.8-.4 7.8-.7 0-1.1-.4-.8-.8.2-.4.1-1.4-.5-2.2-.5-.9-.9-1-.9-.3 0 .6-.3 1.8-.6 2.7-.4 1.2 0 1.6 1.6 1.6 1.3 0 2 .5 1.7 1.2-.2.7-1.2 1.2-2.2 1-1.1-.2-1.5.2-1.3 1 .3.7 1.3 1.2 2.2 1 1.4-.3 1.6.3 1.2 2.8-.5 3.6.2 6.3 1.5 5.4 1.1-.6 1.2 1 .2 2-.4.4-1.6-.3-2.6-1.6l-1.8-2.3 1.1 2.4c1 1.9.9 2.6-.1 3.3-1.1.8-1 .9.2.5 1.4-.5 1.6.3 1.6 4.9-.1 3-.5 5.4-1 5.4s-.6-.8-.3-1.7c.4-.9.1-2-.6-2.5-1.8-1.1-2.8-1-2.8.2 0 .5.7 1 1.5 1 .9 0 1.2.6.8 1.6-.4 1.1-.8 1.2-1.3.4s-1.1-.6-2 .5c-.7.9-.9 1.5-.4 1.4 2.5-.4 6.4.2 6.4 1.2 0 .5-.4.8-.9.5-.5-.4-1.1 0-1.4.6-.3 1-.9 1-2.3.2-1.1-.6-4.2-1.1-7.1-1.1-2.8 0-5.6-.3-6.2-.7-.7-.5-.9-.1-.5.9.4.9 1.2 1.4 1.9 1.1.7-.2 1.8.1 2.5.7 1 .9 1.1.9.6 0s-.2-1.1.9-.7c1.4.6 3.5 3.4 3.5 4.7 0 .3-1.1.4-2.5.2-1.4-.1-2.5.2-2.5.6 0 1.2-2.7 1.1-3.5-.1-.4-.6.1-.7 1-.3 1.5.5 1.5.3.4-1.6-1.6-2.4-3.1-2.9-2.3-.6.4.9 0 1.5-.7 1.5-.9.1-.5.8 1 2 1.6 1.4 3.8 2 7 2 6.3 0 9.6-1.8 9.5-5.3-.1-1.4.3-2.4.8-2.1.4.3.6 1 .3 1.5-.4.5-.2.9.4.9 1.1 0 3.3-7.1 3.2-10.4-.1-1.1-.1-3.4-.1-4.9-.1-1.9-.5-2.6-1.3-2.1-.9.5-.9.3.1-.7.8-.9 1.2-5.2 1.2-13.9 0-12-.1-12.6-2-12.7-1.7-.2-2 .2-1.4 1.9m-4.2 40.4c1.8.4 2.2 1.1 1.8 3-.6 3.3-3.2 3.1-3.3-.4 0-2.3-.2-2.4-.8-.8-.5 1.4-1 1.6-1.5.8-.4-.7-.5-1.6-.2-2.1.4-.5.3-1.1-.1-1.4-.5-.2-.2-.2.5 0z"/><path d="M478.1 514.6c0 1.1.3 1.4.6.6.3-.7.2-1.6-.1-1.9-.3-.4-.6.2-.5 1.3m1.5-43.7c-.3.4.3 1.6 1.4 2.6 1.8 1.6 1.8 1.6 1.3-.4-.6-2.5-1.9-3.5-2.7-2.2m-87.8.8c.6.2 1.8.2 2.5 0 .6-.3.1-.5-1.3-.5s-1.9.2-1.2.5m-1.6 4.5c0 .7-.3 2.4-.7 3.8-.3 1.4-.8 3.6-1.1 5s-.9 4.2-1.5 6.3c-.5 2-.7 4.2-.4 4.7.3.6.2 1-.3 1-1.1 0-3.4 9.8-2.6 11.1.3.5.1.9-.4.9s-1.4 2.2-1.9 5l-1 5h4.3c3.7 0 4.6-.4 4.4-2.3 0-.1.6-2.3 1.4-5 1-3.4 1.1-4.7.3-4.7-.7 0-.6-.4.2-.9 1.3-.8 1.3-1.2 0-2.7-.8-1.1-.9-1.5-.2-1 .9.5 1.1.2.7-.8-.3-.9-1.1-1.3-1.6-1-.6.4-.8.1-.6-.7.3-.8 1-1.3 1.5-1.2s1-.5 1-1.3-.6-1.3-1.3-1c-.8.3-1.2-.3-1.1-1.4.1-1 .5-1.6.9-1.4.4.3.8-.1.8-.8 0-.8.3-.9.8-.3 1.1 1.6 2.9 1.5 2.9 0 0-1-.9-1.3-2.9-1.1-2.6.3-2.7.2-1.4-1.3 1.4-1.5 1.8-13.2.5-14.6-.3-.3-.6.1-.7.7m-3.3 26.5c.2 6.2.3 10 .2 11.5-.1 2.5-2.7 2.3-3.4-.2-.3-1.1-.2-2 .2-2s.7-1.5.6-3.3c-.2-3.1.9-7.7 1.9-7.7.3 0 .5.8.5 1.7m129.9-24.2c-.4.4-.4 1.3-.1 2.1.3.9-.2 1.2-1.6.9-1.1-.2-2.4.1-2.7.7-.5.7-.2.8.6.3s1.1-.3.8.6c-.3.8-1.1 1.4-1.9 1.4s-2 .8-2.8 1.9c-1.1 1.5-1.1 2 0 2.7 1.4.8 3.2-.9 2.3-2.3-1.2-1.9 1.6-.6 3 1.4 1 1.3 1.6 1.7 1.6.9s.3-1.2.6-.8c.3.3.3 1.1-.1 1.7-.5.8-1 .8-2 0s-1.5-.8-2.1.1c-.5.8-.3.9.6.4 1-.6 1.2-.4.7.9-.6 1.4.7 5 2.3 6.6 1.2 1.2.8 2.9-.6 3.4-1.2.5-1.5.2-1-1.1.6-1.6.6-1.6-1.2 0-1 .9-2.2 1.4-2.7 1-.4-.5-.5-.2-.1.4.4.7.3 2-.2 2.9s-.7 2.5-.4 3.6c.4 1.8.5 1.8 1.9-.3 1.1-1.4 2.3-1.9 3.8-1.6 1.8.3 2.4-.1 2.7-1.7.5-3.6-.7-26.8-1.4-26.1m-.7 5.9c-.6.7-.9 1.6-.6 2 .3.3 0 .2-.5-.2-1.3-1.1-.2-4.4 1.2-3.6.5.4.5 1.1-.1 1.8m.5 10.2c.2 2.3.1 2.4-1.2.7-1.7-2.3-1.7-3.3-.1-3.3.6 0 1.3 1.1 1.3 2.6m.2 8.6c-.3.7-1.1 1.3-1.9 1.3s-1.9.7-2.6 1.5c-1.1 1.3-1.2 1.3-1.3-.3 0-1 1-2.2 2.3-2.7 3.1-1.2 3.9-1.2 3.5.2M409.5 480c-.3.5-.1 1 .4 1 .6 0 1.1-.5 1.1-1 0-.6-.2-1-.4-1-.3 0-.8.4-1.1 1m82.5.5c0 1.8 5.7 2.1 8 .4 1.2-.9 1.1-1-.7-.6-1.2.3-2.4 0-2.6-.7-.3-.7-.9-.6-2.2.4-1.1.9-1.6 1-1.1.2.4-.6.2-1.2-.3-1.2-.6 0-1.1.7-1.1 1.5m-13 6.5c0 .5.5 1 1.1 1 .5 0 .7-.5.4-1-.3-.6-.8-1-1.1-1-.2 0-.4.4-.4 1m26 2c0 .5.5 1 1 1 .6 0 1-.5 1-1 0-.6-.4-1-1-1-.5 0-1 .4-1 1"/><path d="M497.8 490.6c-4.4 1.9-5.3 3.7-3.2 7.2 1.3 2.4 1.5 2.4 1.1.4-.3-1.2-.1-2.2.4-2.2s.9.7.9 1.5.5 1.5 1 1.5c1.4 0 7-2.9 7-3.6 0-.2-.9 0-2 .6s-2 .7-2 .3-.5-.2-1.2.5c-.9.9-1.4.7-2.4-.6-1.7-2.2-1.8-3.5-.1-2.5 1.8 1.1 3.8 1.3 3.1.2-.3-.5-1-.7-1.5-.4s-.6 0-.3-.8c.3-.9 1.4-1.2 3.2-.9 3 .5 5.4 2.1 4.8 3.1-.2.3.9.6 2.5.7 2.4.1 2.9-.3 2.9-2.1 0-1.4-.8-2.5-2-2.8-1.3-.3-2 0-2 .9 0 .8-.5 1.4-1.1 1.4-.5 0-.7-.5-.3-1.2.4-.6.3-.8-.3-.5-.6.4-1.3 0-1.7-.8-.7-1.9-2.1-1.8-6.8.1m-7 8.9c-.3 1.4-.2 2.5.2 2.5.5 0 .6.8.3 1.9-.5 1.9 1.3 3.8 2.5 2.6.3-.3 0-1-.7-1.4-1-.7-.9-1 .8-1.6 2.4-.7 2.8-2.5.6-2.5-.8 0-1.5-.9-1.5-2 0-2.9-1.7-2.5-2.2.5m-11.8.5c0 .5.7 1 1.6 1 .8 0 1.2-.5.9-1-.3-.6-1-1-1.6-1-.5 0-.9.4-.9 1"/><path d="M497.3 502c.3 1.3 0 2-.9 2-.8 0-1.4.6-1.4 1.3s-.7 2.2-1.5 3.3c-.9 1-1.4 1.3-1.3.5.2-.7-.2-1.5-.8-1.8-2-.7-.4 4.3 2.5 7.7 2.1 2.5 3.6 3.3 7.3 3.7 6.7.8 10.1-.2 9.3-2.7-.4-1.2-.2-2 .5-2 .6 0 .8.4.5 1-.3.5 0 1 .8 1 2.1 0 5-4.8 4.2-6.8-.6-1.5-.8-1.4-1.6.6-.5 1.2-1.7 2.5-2.6 2.9-1 .3-2.8 1.7-3.9 2.9-2.2 2.5-7.4 3-7.4.8 0-.7-1-.9-2.5-.6-1.4.2-2.5 0-2.5-.7 0-.5.6-.8 1.3-.5.8.3 1.4-.1 1.4-.9s-1.1-1.2-2.9-1.1-2.7-.2-2.5-.9c.3-.7 1-1.1 1.7-.9.8.2 1-.3.7-1.3-.9-2.2.2-4.5 1.9-3.8 1.1.4 1.4-.2 1.2-2.6-.1-1.7-.6-3.1-1.1-3.1s-.7.9-.4 2m-81.3 0c-.8 2.5-.3 6.4 1.2 7.7 1.6 1.4 1.7 1.4 1.3-.3-.7-3.2-2.3-7.9-2.5-7.4m42.7 3.7c-.2.5.2 2.1.9 3.8l1.3 3 .1-3.2c0-3-1.4-5.2-2.3-3.6m6.8.3c-.3.5.1 1.3 1 1.6 2.2.9 2.9-.1 1.1-1.5-1-.8-1.6-.9-2.1-.1"/><path d="M497 508.9c0 .6.4 1.2.8 1.5.5.3.9-.1.9-.9s-.4-1.5-.9-1.5c-.4 0-.8.4-.8.9m3.2.9c.3 1.7 4.8 2.5 4.8.8 0-.6.5-.4 1.1.4.9 1.3 1 1.3.7 0-.3-.8-1.9-1.7-3.7-2.1-2.6-.5-3.1-.4-2.9.9m12.9-.2c0 1.1.3 1.4.6.6.3-.7.2-1.6-.1-1.9-.3-.4-.6.2-.5 1.3m-51.6 3.4c-.3.5-.1 1 .4 1 .6 0 1.1-.5 1.1-1 0-.6-.2-1-.4-1-.3 0-.8.4-1.1 1m7 0c-2.1.9-2.1.9 1.2 1.6 1.7.3 2.1 0 1.7-1.1-.4-.8-.7-1.5-.8-1.4 0 0-1 .4-2.1.9m33.5.7c0 1.3 2.9 3.8 3.5 3.1.3-.3-.4-1.3-1.5-2.3s-2-1.3-2-.8m3 24.7c0 .2 1.6 1.3 3.6 2.5 1.9 1.2 3.2 1.6 2.9 1.1-.7-1.1-6.5-4.3-6.5-3.6m8 5c0 .2 2 1.6 4.5 2.9 5.6 3.2 5.9 2.6.5-.8-3.9-2.4-5-2.9-5-2.1m9.1 7.8c-1.3 2.1-1.3 2.2.1 1 1.4-1.1 1.6-.8 1.5 2.7-.2 4.6 1.2 5.5 3 2 1-1.8 1.3-2 1.3-.7 0 2 1.6 2.4 2.2.6.3-.8.9-.8 2.4.1 1.5 1 1.5 1.1.2.7-1.4-.4-1.8.1-1.8 2.4 0 1.7-.4 3-.9 3s-.7-.8-.4-1.9c.5-2.1-2.2-3.7-3.3-1.9-.4.6-.3.8.4.4.6-.3 1.3-.2 1.7.4.6.9-1.4 1.4-4.3 1.1-.7-.1-1.1.4-1 1 .5 2.3-3 2.1-3.7-.2-.6-1.7-.9-1.9-1.6-.8s-.9 1-.9-.5c0-1.3-.5-1.7-2-1.3-1.1.3-2 .1-2-.4s.8-.9 1.8-.9c1.1 0 1.8-.8 1.9-2.1.2-2.1.1-2.1-1.3-.3-1 1.3-1.3 1.4-1.1.4.2-.8.2-1.2 0-.7-.3.4-1 .4-1.5.1-.6-.4-.8-.2-.5.4.4.5.3 2.1-.2 3.4-.9 2.2-1.6 1.1-1.2-2 .1-.6-.3-1.2-.9-1.2s-.8.4-.5 1c.3.5.1 1-.4 1-.6 0-1.1.6-1.1 1.4 0 1.4 8.5 5.5 12.4 6 1.1.2 2.9.7 3.8 1.1s2.2.3 2.9-.1c.8-.4.9-.3.5.4s-.1 1.2.8 1.2c1 0 1.6-.9 1.7-2.3.1-2 .2-2 .6-.2.8 3.1 2.1 3.5 13 3.5 13.5 0 29.3-3.3 29.3-6.2 0-.5.5-.6 1.2-.2.6.4.8.3.5-.3-.4-.6-5.5-1.3-11.4-1.6s-13.3-1.3-16.3-2.2c-3-1-5.9-1.8-6.5-1.9-.5-.1-1.9-.7-3-1.3s-2.3-1.1-2.8-1.2c-.4 0-2.9-1.2-5.7-2.6-2.7-1.4-5.1-2.5-5.2-2.5-.2 0-.9 1-1.7 2.2m17.2 8.1c.3.8.1 2-.4 2.8s-.6 2.2-.3 3.1c.3 1 .1 1.8-.5 1.8s-1.1-1-1.1-2.3c0-1.4-.3-1.8-.8-1-.6.9-1.2.7-2.5-.7-1.7-2-1-2.9.9-1 .5.5 1.5.6 2.3.1 1-.7.8-1.1-1-1.6-2.3-.8-2.3-.8-.4-1.6 2.9-1.1 3.2-1.1 3.8.4m6.8 1.2c.8-.5.9-.1.4 1.4-.7 2.2 1 3 1.8.8.4-.7.6-.8.6-.1.1.6-.6 1.7-1.4 2.4-1 .9-1.5.9-1.5.1 0-.6-.7-1.1-1.5-1.1s-1.2-.6-.9-1.4.1-1.7-.5-2.1c-1.1-.6-1.3-.1-1.4 4.7-.1 3.4-.3 3.4-1.8.7-.9-1.7-.8-2 .2-1.4.9.6 1 .3.6-1-1-2.4 1.1-4.9 2.9-3.4.7.6 1.8.8 2.5.4m10.4 1.7c.4-.4.2.3-.4 1.5-1.3 2.6-2.3 3.1-1.4.8.3-1 .1-1.5-.7-1.3-.7.2-1.5-.3-1.7-1-.4-1.1-.1-1.2 1.5-.3 1 .6 2.3.7 2.7.3m14.5.8c0 .5-.7.7-1.5.4-.8-.4-1.5-.1-1.5.5s-.7.8-1.5.5c-2.5-1-1.7-2.4 1.5-2.4 1.7 0 3 .4 3 1m-11 2.6c0 .8-.4 1.4-.8 1.4s-.8-.9-.8-1.9c0-1.1.4-1.7.8-1.5.4.3.8 1.2.8 2m-14.6.9c.3.8.1 1.5-.4 1.5-.6 0-1-.7-1-1.5s.2-1.5.4-1.5.6.7 1 1.5"/><path d="M518.2 555.8c-.7 2.1-.7 2.9.2 2.9.7 0 1.3-1.3 1.4-2.9.1-1.5 0-2.8-.2-2.8s-.8 1.3-1.4 2.8m-22.2-1.3c0 .7 10.1 5.7 10.6 5.3.2-.2-2.1-1.6-5.1-3.1s-5.5-2.5-5.5-2.2m80 6.6c0 .5.5.7 1 .4.6-.3 1-.8 1-1.1 0-.2-.4-.4-1-.4-.5 0-1 .5-1 1.1m-82 .3c0 .3 1.4 1.2 3 2.1 1.7.9 3 1.3 3 1.1 0-.3-1.3-1.2-3-2.1-1.6-.9-3-1.3-3-1.1m11 6.6c1.1 1.1 2.3 1.9 2.8 1.9 2-.3 2.5.2 1.2 1.2-1.3.9-1.3 1 0 .6.8-.2 2.3.2 3.2 1.1 1.7 1.4 4.8 1.1 4.8-.6 0-.8-6.2-3.1-8.3-3.1-.4 0-1.5-.7-2.3-1.6-.9-.8-2-1.5-2.5-1.5s0 .9 1.1 2"/><path d="M518 573c0 .5.1 1.1.2 1.2.1.2-.4 1.3-1.1 2.6-1.2 2.2-3.6 2.1-2.8-.1.4-1.3-2.1-3.6-3.8-3.7-.5 0-.4.4.3.9.7.4 1.4 1.4 1.5 2.2.2.8.7 2 1.1 2.8.7 1 .6 1.2-.4.6s-1.2-.3-.7 1.1c.7 1.8.7 1.8-.7.1-1-1.3-2.1-1.7-3.7-1.2-1.7.6-2.7.2-4-1.6l-1.8-2.4.6 2.5c.5 2.2.4 2.3-.8.9-2-2.3-4.2-2.9-5.6-1.4-.9 1 0 1.6 4.5 2.8 3.1.9 7.1 1.9 8.7 2.2 4.1.8 14.4 1.6 12.3.9-.9-.3-1.9-1.2-2.2-2.1-.5-1.1-.2-1.4 1.1-.9s1.1 0-.6-1.8c-1.4-1.5-2.3-2.6-2-2.7.2-.1 1.6-.2 3.1-.3 2.5-.3 2.7 0 2.4 3.1-.1 1.8.2 3.3.6 3.3.5 0 .6.4.3 1-.8 1.3 6.6 1.3 13.6 0 6.9-1.3 18.7-5.5 21.8-7.9 2.3-1.8 2.2-1.8-4-.4-3.5.8-8.8 1.4-11.6 1.3-2.9 0-5.3.3-5.3.7 0 .5-1 1.4-2.2 2.2-2.3 1.4-2.3 1.4-.5-.7 1.9-2.1 1.9-2.1-2-2.7-2.1-.3-5.8-1.1-8.2-1.6-3.4-.8-4.6-.7-5.2.3-.7 1-.9.9-.9-.5 0-.9-.4-1.7-1-1.7-.5 0-1 .4-1 1m11 4.2c0 .9.3.8 1-.2.7-1.2.9-1 .7.8-.1 2.4-.3 2.5-3.2 1.2-1.3-.6-1.5-.9-.5-.9 1.3-.1 1.3-.2 0-1.1-1.3-.8-1.2-1 .3-1 .9 0 1.7.6 1.7 1.2m16.7 1.3c0 .8-.4 1.5-.9 1.5-.4 0-.8-.7-.8-1.5s.4-1.5.8-1.5c.5 0 .9.7.9 1.5m-28.3 2c-.4.8-1.1 1.2-1.6.9-.6-.4-.5-1 .3-1.5 1.9-1.2 1.9-1.1 1.3.6m13.1.7c.5-.4.5-.1.1.5-1 1.8-3.3 1.6-3.3-.2 0-1 .4-1.2 1.2-.5.7.5 1.6.6 2 .2"/><path d="M508 574.1c0 1.4 2.8 4.1 3.3 3.2.2-.5-.4-1.6-1.5-2.6-1-.9-1.8-1.2-1.8-.6m-22 .3c0 .2.7.7 1.6 1 .8.3 1.2.2.9-.4-.6-1-2.5-1.4-2.5-.6m5 2c0 .2.7.7 1.6 1 .8.3 1.2.2.9-.4-.6-1-2.5-1.4-2.5-.6m15.5 1.6c-.3.5-.1 1 .4 1 .6 0 1.1-.5 1.1-1 0-.6-.2-1-.4-1-.3 0-.8.4-1.1 1"/></g><path fill="#408080" fill-opacity=".2" d="M564.8 560.7c1.2.2 3 .2 4 0 .9-.3-.1-.5-2.3-.4-2.2 0-3 .2-1.7.4"/><path fill="#000040" fill-opacity=".9" d="M486.3 477c0 4.1.2 5.8.4 3.7.2-2 .2-5.4 0-7.5-.2-2-.4-.3-.4 3.8m-8 4.5c0 2.2.2 3 .4 1.7.2-1.2.2-3 0-4-.3-.9-.5.1-.4 2.3m7.8 5.1c0 1.1.3 1.4.6.6.3-.7.2-1.6-.1-1.9-.3-.4-.6.2-.5 1.3m32 0c0 1.1.3 1.4.6.6.3-.7.2-1.6-.1-1.9-.3-.4-.6.2-.5 1.3m-40 4c0 1.1.3 1.4.6.6.3-.7.2-1.6-.1-1.9-.3-.4-.6.2-.5 1.3m8.2 3.4c0 3 .2 4.3.4 2.7.2-1.5.2-3.9 0-5.5-.2-1.5-.4-.2-.4 2.8m31.8-3.4c0 1.1.3 1.4.6.6.3-.7.2-1.6-.1-1.9-.3-.4-.6.2-.5 1.3m-72.9 2.9c0 1.6.2 2.2.5 1.2.2-.9.2-2.3 0-3-.3-.6-.5.1-.5 1.8m73 4.5c0 1.4.2 1.9.5 1.2.2-.6.2-1.8 0-2.5-.3-.6-.5-.1-.5 1.3m-28.1 6.6c0 1.1.3 1.4.6.6.3-.7.2-1.6-.1-1.9-.3-.4-.6.2-.5 1.3m-45 17c0 1.1.3 1.4.6.6.3-.7.2-1.6-.1-1.9-.3-.4-.6.2-.5 1.3m0 4c0 1.1.3 1.4.6.6.3-.7.2-1.6-.1-1.9-.3-.4-.6.2-.5 1.3m.1 4.4c0 1.4.2 1.9.5 1.2.2-.6.2-1.8 0-2.5-.3-.6-.5-.1-.5 1.3"/><path fill="#408080" fill-opacity=".3" d="M453.2 491.5c0 1.6.2 2.2.5 1.2.2-.9.2-2.3 0-3-.3-.6-.5.1-.5 1.8"/><g fill="#004080" stroke-width="0"><path d="M398.5 459.4c-1.1.8-1.7 1.8-1.2 2.2.4.4.7.2.7-.5s.9-.3 2 1c1.7 2.1 1.9 2.2 2 .6 0-1.1.4-1.5 1.2-1.1.7.4.8.3.4-.5-.4-.6-1.1-.9-1.6-.6s-1-.2-1.2-1c-.3-1.4-.5-1.4-2.3-.1"/><path d="M397.7 462.7c-1.1 1-.8 3.5.3 2.8.6-.3 1 .1 1 1.1 0 1.4.3 1.4 1.5.4 1.3-1.1 1.4-1 1 .3-.4.8-.2 1.8.3 2.1s.9-.8 1-2.5c0-1.7-.2-2.8-.5-2.5-.4.3-1.4-.1-2.3-.9s-2-1.2-2.3-.8m-1.2 5.3c.3.5.8 1 1.1 1 .2 0 .4-.5.4-1 0-.6-.5-1-1.1-1-.5 0-.7.4-.4 1m-3 2-2 .9 2 .1c1.8.1 1.8.2-.3 1-1.9.8-2.2 1.5-1.8 4.7.3 2.6-.1 4.4-1.2 5.8-1.6 1.8-1.6 1.9 0 .7 1.5-1.2 1.7-1 1.6 2 0 1.8-.8 4.1-1.6 5.1-1.5 1.6-1.4 1.7.1 1.1 1.3-.5 1.6-.2 1.1 1-.3.9-.9 1.4-1.3 1.2-.4-.3-.7.4-.8 1.4-.1 1.1.3 1.7 1.1 1.4.7-.3 1.3.2 1.3 1s-.5 1.4-1 1.3-1.2.4-1.5 1.2c-.2.8 0 1.1.6.7.5-.3 1.3.1 1.6 1 .4 1 .2 1.3-.7.8-.8-.5-.8-.3.1.9 1.1 1.3 1.6 1.4 2.7.4 1.4-1.4 1.7-6.7.5-6.7-.5 0-.6-1-.2-2.2.3-1.4.2-1.9-.6-1.4-.7.4-1.2.2-1.2-.4s.6-1.3 1.4-1.6c1.7-.7 1.9-6.5.2-7.6-.8-.5-.7-.8.2-.8.6 0 1.2-.5 1.2-1.1 0-.5-.5-.7-1.1-.3-.8.5-.8.1 0-1.4 1.4-2.5 1.4-4.3.1-2.2-.8 1.3-1 1.2-1-.3 0-.9.6-1.7 1.4-1.7.9 0 1.3-.7 1.1-2-.2-1.2.2-2 1-2s1.6-.4 1.9-.9c.4-.5-.4-.7-1.6-.3-1.4.3-1.9.2-1.4-.6.8-1.4.8-1.4-1.9-.2m88.2 2.1c.6 2.1.5 2.3-1 1-1.5-1.2-1.7-1-1.6 2 0 2.8.2 3.1.9 1.4.6-1.4.9-1.6 1-.5.2.8.2 1.8.1 2.2 0 .5.5.8 1.2.8 1.6 0 1.4-6.7-.2-8.3-.6-.6-.8-.1-.4 1.4m20-1.3c-.4.6-1.3.9-2.1.6-.7-.3-1.3.2-1.3 1 0 1.2.8 1.4 2.9 1.1 2-.4 2.8-.1 2.8.9 0 .9.8 1.4 2 1.3 1.1-.1 2-.5 2-.9s.5-.8 1.1-.8c.5 0 .7.4.4 1s.1.7 1 .4c.8-.4 2.2-.1 3 .6.9.7 1.5.8 1.5.2 0-.5-.7-1.3-1.6-1.6-.8-.3-1.3-1-.9-1.5.3-.5.1-1.2-.5-1.6-.5-.3-1 .1-1 .9 0 1-.6 1.3-1.6.9-.9-.3-1.3-1.2-.9-2.2.5-1.3.4-1.4-.6-.4-1.6 1.6-4.6 1.7-5.1.1-.3-.9-.6-.9-1.1 0m-64.6 1.8c0 1.1.3 1.4.6.6.3-.7.2-1.6-.1-1.9-.3-.4-.6.2-.5 1.3m2.4 1.1c.5 1.8.3 2.2-.9 1.7-.9-.3-1.6-.1-1.6.4 0 .6.9.9 2.1.7 1.5-.3 1.9 0 1.5 1-.3.8-.1 1.7.4 2 .6.4 1 .1 1-.5s.5-.8 1-.5c1.8 1.1 1-1-1.6-4-2.2-2.6-2.4-2.7-1.9-.8m3-.7c.3.5.8 1 1.1 1 .2 0 .4-.5.4-1 0-.6-.5-1-1.1-1-.5 0-.7.4-.4 1m18.2.5c.3 1 0 2.1-.8 2.6-1 .6-1 .9-.1.9.6 0 1.2.7 1.2 1.5s-.6 1.5-1.2 1.5c-.9 0-1 .3-.2.8 1.4.9 1.6 7.2.3 7.2-.5 0-.9.5-.9 1.1 0 .5.4.8.9.5s.9 1 .9 2.9c0 2-.5 3.5-1.1 3.5-.9 0-.9.2-.1.8 1.3.8 1.7 7.5.4 6.7-.5-.3-.8.3-.7 1.4 0 1.1.5 1.7.9 1.5.4-.3.8 1.1.8 3.1 0 2.5.4 3.4 1.2 2.9.7-.5.9-.2.6.7-.7 1.7 5 4.7 6.1 3.3.3-.5 1.6-.9 2.9-.8 1.2.1 2.2-.1 2.2-.3 0-1.3-2.2-4.1-3.5-4.7-1.1-.4-1.4-.2-.9.7s.4.9-.6 0c-.7-.6-1.8-.9-2.5-.7-.7.3-1.5-.2-1.9-1.2-.5-1.3-.3-1.4.6-.7.8.6 2.2.7 3.3.2 1.9-.7 1.9-.8-.2-.8-2.5-.1-3.9-1.6-2.3-2.6.6-.4.8-1.1.4-1.6-.3-.5-.9-.7-1.3-.4-.5.2-.8-1-.8-2.8.1-1.8-.3-3.9-.8-4.6-.6-1.1-.4-1.3 1-.7 1.5.5 1.6.4.5-.9-.7-.8-1-2.2-.6-3 .3-.9 0-1.5-.9-1.5-.8 0-1.5-.5-1.5-1 0-.6.6-.9 1.3-.8.8.2 1.1-1 .9-4.1-.3-2.6 0-4.1.6-3.7.5.3.7-.5.4-1.9-.2-1.3-1.2-2.6-2.1-2.8-1.3-.4-1.3-.5.2-.6 2.5-.1 1.6-2.5-1.1-2.9-1.7-.3-2 0-1.5 1.3m6 40.2c.8 1 1.2 1.3.9.7-.3-.7.3-1.4 1.3-1.7 1.2-.3 2.2.1 2.5 1 .4 1.1.2 1.3-.9 1-.8-.4-1.7-.2-2 .3-1 1.6-2.3 1.2-3.5-1-1.3-2.5-.2-2.6 1.7-.3m28.9-40.9c-.7 1.2 1.2 3.8 2.1 2.8.4-.5.2-1.1-.5-1.3-.6-.3-1-.9-.6-1.4.3-.5.3-.9 0-.9s-.7.4-1 .8m-64.9 1.3c-1.8 1.1-2.3 3.4-.8 4.3.5.4.7-.3.4-1.4-.3-1.2 0-2 .6-2 .7 0 1 .4.6.9-.3.5-.1 1.2.5 1.6s.7 1.2.3 1.8c-.4.7.1.5 1.2-.3 1.7-1.4 1.7-1.5 0-1.9-1.1-.2-1.4-.6-.7-1 1.9-1.1-.1-3.1-2.1-2"/><path d="M499.8 474.9c-.3 1.2-.6 2.6-.7 3.4 0 .4-1.2 0-2.6-.9s-2.8-1.4-3.2-1c-.3.3-.1.6.5.6.7 0 1.2.5 1.2 1.1 0 .5-.4.8-.8.5-.5-.3-.9.1-.9.9 0 1.2.3 1.2 1.5.2 1.1-.9 1.6-.9 1.9-.1.6 1.8 4.3.4 4.3-1.5 0-.9.5-2.2 1-2.7.7-.7.6-1.1-.5-1.1-.8 0-1.6.3-1.7.6m-92 5.3c-.2 2.4-.1 4.4.4 4.6.4.2.4 1.1-.1 2.1-.6 1-.6 2.3-.1 3.1s.6 1.8.3 2.2c-.4.8-.7 6.9-.4 10.5.2 2 3.1 1.5 3.1-.5 0-1 .6-2.4 1.3-3.1 1-1 .8-1.1-.8-.5-1.8.7-1.8.6-.6-.9.8-1.1.9-1.7.3-1.7s-.9-.7-.5-1.6c.5-1.3.7-1.3 1.4-.2.6.9.9.9.9.1 0-.6-.5-1.5-1-1.8-.6-.4-.8-1.1-.4-1.6.3-.5 0-1.7-.7-2.5-.6-.8-.9-1.7-.6-2.1.4-.3.2-1.4-.4-2.4-.7-1.4-.6-1.9.3-1.9.8 0 .9-.3.3-.8-.6-.4-1-1.7-.9-3 .2-4.1-1.4-2.3-1.8 2m17.8-2.9c.3 1 .9 1.5 1.2 1.2s0-1.1-.7-1.8c-1-.9-1.1-.8-.5.6m21.4-.8c-.9 6.4-.8 8.4.6 8.9 1.1.4 1.2.2.4-1.3-.6-1.3-.6-2.1 0-2.3s.6-1.4.1-3.3c-.5-1.7-1-2.6-1.1-2m64 .6c0 .5-.6.7-1.2.3-1-.6-.9-.3 0 .8.8.9 1.2 2.7 1 4-.3 2.5 2.2 3.3 3 .9q.45-1.35-.9-.6c-.8.5-1 .4-.6 0 .4-.5 1.4-1 2.2-1.1 1.2-.2 1.3.2.4 1.8-.8 1.5-.8 2.3.1 3.2.6.6 1.1.6 1 .1-.2-.6-.1-1.2 0-1.5s.4-2.3.5-4.5c.3-3.7.2-3.8-1.1-2.1-.8 1.1-1.4 1.4-1.4.7s-.4-.9-1-.6-.7-.1-.4-.9c.3-.9.1-1.6-.5-1.6s-1.1.5-1.1 1.1m-61.6 3.2c0 2 .3 3.7.7 3.7 1.5 0 1.7-1.6.5-4.4l-1.2-3zm-25.4.1c0 .2.7.9 1.5 1.6 1.2 1 1.5 1 1.5-.4 0-.9-.7-1.6-1.5-1.6s-1.5.2-1.5.4m55 .5c0 1.1 2.6 2.2 3.4 1.4 1.2-1.2.5-2.3-1.4-2.3-1.1 0-2 .4-2 .9m-49 1.6c-.7.9-1.1 1.7-.9 2 .3.2 1-.5 1.7-1.5 1.4-2.4 1-2.6-.8-.5m49 2.5c0 .3.5 1.1 1.2 1.8.9.9.9 1.2 0 1.2-2 0-1.5 10 .6 11.6 1.6 1.3 1.6 1.3-.3 1.4s-1.9.1-.2 1.4c1 .8 1.5 2 1.1 3-.3.9-.2 1.6.3 1.6s.9-2.4 1-5.4c0-4.6-.2-5.4-1.6-4.9-1.2.4-1.3.3-.2-.5 1-.7 1.1-1.4.1-3.3l-1.1-2.4 1.8 2.3c1 1.3 2.2 2 2.6 1.6 1-1 .9-2.6-.2-2-1.3.8-2-1.7-1.5-5.2.4-2.6.2-3.1-1.5-2.9-1.2.1-2.1.4-2.1.7m-55.1 1.1c1.4.5 2.8.6 3.2.2s-.6-.9-2.4-1c-3-.1-3.1-.1-.8.8m21.7.8c-.4.6 0 1.1 1 1.1 1.4 0 1.4.3.4 1.5-1.1 1.3-1 1.4.4.9.9-.3 1.6-.1 1.6.5s-.8 1.1-1.7 1.1c-1.5 0-1.6.2-.3 1 .8.5 1.1 1 .5 1-.5 0-1 1.1-1 2.3 0 1.5.6 2.4 1.4 2.3s1.7 1 2 2.3c.6 2.1.8 2.2 1.9.8.9-1.1 1-1.7.2-2.2s-.7-1.1.2-2.3c1.1-1.3 1.1-1.4-.1-.7-1.1.6-1.3.3-.9-1.3.4-1.2.2-2.5-.3-2.8s-.8-.8-.5-1.2c.7-1.2-4.1-5.5-4.8-4.3m4.6 6.9c-.8.2-.9.9-.2 2.3 1.1 2-.3 2.8-1.5.9-1-1.6.5-5.1 1.8-4.3.8.5.8.8-.1 1.1m60.9-7.1c.4 2.7-.2 3.3-2.1 2.3-1.5-.8-2-.8-2 .1 0 .6-.7.9-1.4.6-1-.4-1.3-.1-.9.8.3.8 1 1.2 1.6.8.6-.3.7-.1.3.5-.4.7-.2 1.2.3 1.2.6 0 1.1-.6 1.1-1.4q0-1.35 2.1-.9c1.8.5 2 1.1 1.3 6.2l-.7 5.6 2.2-1.9c1.9-1.7 2.1-1.7 1.5-.3-.5 1.3-.2 1.6 1 1.1 1.4-.5 1.8-2.2.6-3.4-1.6-1.6-2.9-5.2-2.3-6.6.5-1.3.3-1.5-.7-.9-.9.5-1.1.4-.6-.4.6-.9 1.1-.9 2.1-.1s1.5.8 2 0c.4-.6.4-1.4.1-1.7-.3-.4-.6 0-.6.8s-.6.4-1.6-.9c-1.4-2.1-3.5-3-3.3-1.5m-88.1 2.9c0 .8.9 1.4 2 1.4s2-.6 2-1.3-.9-1.3-2-1.4-2 .4-2 1.3"/><path d="M498.5 492.7c-.2.8-.1 1.1.4.8s1.2-.1 1.5.4c.7 1.1-1.3.9-3.1-.2-1.7-1-1.6.3.1 2.5.7 1 1.6 1.5 2 1.1s1.3-.8 2.1-1 2.3-.5 3.3-.7c.9-.3 1.9-.5 2.1-.5.2-.1-.2-.7-.8-1.5-1.7-2-6.9-2.6-7.6-.9m-73.2.8c0 .8.4 1.5.9 1.5.4 0 .8-.7.8-1.5s-.4-1.5-.8-1.5c-.5 0-.9.7-.9 1.5m88.7-.8c0 .5.7 1.6 1.4 2.6 1.3 1.7 1.4 1.6 1.2-.7 0-1.5-.7-2.6-1.3-2.6-.7 0-1.3.3-1.3.7m-115.4 4.9c-.3.8-1.3 1.4-2.1 1.4-1.5 0-1.5.1-.1 1.6.9.8 1.6 1.9 1.6 2.4s.8.8 1.9.7c2.2-.1 1.7-3.7-.6-3.7-.8 0-1.2-.4-.8-.9.3-.6 1.4-.8 2.5-.6 2.6.5 2.6-1.1.1-1.8-1.2-.3-2.2.1-2.5.9m26.4-.2c0 .9.5 1.6 1 1.6.6 0 1-.4 1-.9 0-.6-.4-1.3-1-1.6-.5-.3-1 .1-1 .9m67.8 1.1c.2 1.4 1.1 2.5 1.8 2.5 2.1 0 1.7 1.6-.8 2.8-1.3.6-1.7 1.1-1 1.1.6.1 1.2.6 1.2 1.2s-.9.8-2.2.4c-2-.5-2.1-.5-.5.5.9.6 1.5 1.7 1.1 2.3-.3.7.2.3 1-.7.9-1.1 1.6-2.6 1.6-3.3s.6-1.3 1.4-1.3c.9 0 1.2-.7.9-1.9-.3-1.3.1-2.1 1.4-2.4 1.6-.4 1.6-.5.1-.6-1 0-1.8-.8-1.8-1.6s-.4-1.5-.9-1.5-.7 1-.5 2.2l.5 2.3-1.2-2.3c-1.6-2.9-2.7-2.8-2.1.3m-87.2 1c-.9 2.6-.7 3.2.5 1.2.6-1 .9-2.1.6-2.3-.2-.3-.7.2-1.1 1.1m9.1 1.7c-.7 2.1-.2 15.7.8 16.5.4.4.6.1.2-.8-.4-1.3-.1-1.6 1.4-1.2s1.9 0 1.9-2c0-1.4-.5-2.9-1-3.2-.6-.4-.8-1.1-.4-1.6.3-.5 0-.8-.7-.7-.9.2-1.3-.9-1.2-4 .2-4.3-.1-5.2-1-3m8.9 0c.3.4 1.1.5 1.9.1 2.1-.7 1.9-1.2-.4-1-1.1 0-1.8.5-1.5.9m-38.6 2.3c-1.1 2.8-.3 5.8 1.3 4.8q.9-.45.3.6c-.6.9-1.1.9-2.4-.1-1.4-1.2-1.4-1-.3.9.6 1.3.7 2.3.2 2.3s-.7.9-.4 2c.7 2.5 3.3 2.7 3.4.2.1-1.5 0-5.3-.2-11.5 0-2.4-.8-2.1-1.9.8m61.7-1.8c-.3.5-.3 2.4-.2 4.3s-.3 3.9-.9 4.3c-.7.6-.4.7.6.3 1-.3 2-.1 2.3.4.4.6.2 1-.3 1-.6 0-1.3.8-1.6 1.7-.4 1-.4 1.4 0 1s1.2-.3 1.8.2c.7.6 1.6.3 2.5-.6 1.2-1.3 1.1-1.4-1-.8-2.1.7-2.2.6-1-.8.7-.9 1.6-1.5 2-1.3.9.6.8-6 0-6.9-.4-.3-.5.8-.4 2.5.3 3.4 0 3.6-2.1 1.5-.9-.8-1.1-1.5-.5-1.5.5 0 .9-1.4.9-3-.1-2.8-1.1-3.9-2.1-2.3m66.6 1.3c-1.3.5-2.3 1.7-2.3 2.7.1 1.6.2 1.6 1.3.3.7-.8 1.8-1.5 2.6-1.5s1.6-.6 1.9-1.3c.4-1.4-.4-1.4-3.5-.2m-88.5 1.6c-.8 3.2.5 4.7 2.1 2.3.7-1.2.8-1.8.2-1.5-.5.3-1.1-.2-1.3-1.1-.3-1.5-.5-1.5-1 .3m4.5 2c0 1.7.2 2.2.7 1.3.5-.6.6-1.8.3-2.6-.8-1.9-1-1.6-1 1.3m48.1-1.4c-.4.6-.3.8.4.4.5-.3 1.2-.1 1.4.6.3.8.7.6 1.1-.5.7-2-1.7-2.4-2.9-.5m-67.3 1.4c0 1.1.3 1.4.6.6.3-.7.2-1.6-.1-1.9-.3-.4-.6.2-.5 1.3"/><path d="M495.6 506.6c-.3.8-.3 2.1.1 2.9.3 1 .1 1.5-.7 1.3-.7-.2-1.4.2-1.7.9-.2.7.7 1 2.5.9s2.9.3 2.9 1.1-.6 1.2-1.4.9c-.7-.3-1.3 0-1.3.5 0 .7 1.1.9 2.5.7 1.5-.3 2.5-.1 2.5.6 0 2.2 5.2 1.7 7.4-.8 1.1-1.2 2.9-2.6 3.9-3 1.1-.3 2.1-1.5 2.4-2.5.3-1.2 1.1-1.7 1.9-1.4 1 .4 1.2 0 .8-1.1-.9-2.3-4-2-5.8.6-1.5 2.1-1.6 2.1-1.7.3 0-1.1-.3-1.4-.6-.8-.2.7-1.1 1.3-1.9 1.3s-1.7.6-2 1.3c-.9 2.3-4.7 1.3-5.6-1.5-1.1-3.1-3.4-4.3-4.2-2.2m3.1 2.9c0 .8-.4 1.2-.9.9-.4-.3-.8-.9-.8-1.5 0-.5.4-.9.8-.9.5 0 .9.7.9 1.5m15 .7c-.3.8-.6.5-.6-.6-.1-1.1.2-1.7.5-1.3.3.3.4 1.2.1 1.9m-8.2 6.6c-.6.7-3.5-1.8-3.5-3.1 0-.5.9-.2 2 .8s1.8 2 1.5 2.3m-30.7-7.6c-1.2 1-1.6 1.8-.9 1.8s.9.4.6 1c-.3.5-.3 1.5.1 2.2.5.8 1 .6 1.5-.8.6-1.6.8-1.5.8.8.1 3.2 3.1 4 3.1.9 0-1.1.4-2.3 1-2.6s.7.1.4.9c-.3.9-.2 1.6.4 1.6 1.9 0 .5-3.5-1.4-3.6-4.6-.2-5.5-.5-4.9-1.4.4-.6 1.4-.5 2.7.3 1.6.9 2.2.9 2.5-.1.3-.6.9-1 1.4-.6.5.3.9.1.9-.4 0-1.9-6-1.9-8.2 0m3.9 6c-.3.8-.6.5-.6-.6-.1-1.1.2-1.7.5-1.3.3.3.4 1.2.1 1.9m-48.4-5.7c-1 1.1-.9 1.3.7 1.2 2-.1 2.6-1.2 1.3-2-.5-.3-1.4.1-2 .8m11.7-.5c0 .6-.4.8-1 .5-1-.6-1.4 1.3-1.1 4.7.2 1.2-.3 1.6-1.3 1.2-.9-.3-1.6-.4-1.6-.1s.7.7 1.5 1.1c1.9.7 4.8-2.2 4-4.2-.3-.8-.1-1.9.6-2.2.8-.6.8-.9 0-1.4-.6-.4-1.1-.2-1.1.4m0 4c0 .5-.2 1-.4 1-.3 0-.8-.5-1.1-1-.3-.6-.1-1 .4-1 .6 0 1.1.4 1.1 1m-11.7 2.5c0 .8.4 1.2.9.9s.6-1 .3-1.5c-.9-1.3-1.2-1.1-1.2.6"/><path d="M510 514.9c0 .6.4 1.2.8 1.5.5.3.9-.1.9-.9s-.4-1.5-.9-1.5c-.4 0-.8.4-.8.9m-63.2 1.8c.6.2.9 1 .5 1.6-.3.7-.3.9.2.5.4-.4 1.5.1 2.4 1 .9 1 1.3 1.3.9.7s-.2-1.7.5-2.4c.9-1 .9-1.1-.4-.6-1 .4-2 .2-2.4-.4-.3-.6-1.2-1.1-1.8-1-.9 0-.8.2.1.6m.1 4c0 .4-.2 2.3-.3 4-.2 1.8 0 3.3.3 3.3 1.6 0 1.9-1.3 1.1-3.5-.6-1.6-.5-2.5.3-2.8.8-.2.8-.5-.1-1.1-.7-.4-1.2-.4-1.3.1m3.1 10.7c0 .2.7.7 1.6 1 .8.3 1.2.2.9-.4-.6-1-2.5-1.4-2.5-.6m-3.4 2.3c-.6 1.4-.5 1.5.5.6.7-.7 1-1.5.7-1.8s-.9.2-1.2 1.2m72 17.6c-.9.7-1.6 1.9-1.4 2.7s-.5 1.4-1.7 1.4-1.9-.6-1.7-1.4c.3-1.1 0-1.1-1.2 0-.9.7-1.6 1.9-1.6 2.7s-.4 1.2-.8.9c-.5-.3-.9.1-.9.9s.4 1.2.9.9c.4-.3.8.1.8.8.1.7.6.2 1.3-1.2 1.2-2.6 2.8-3.2 4.3-1.8.4.5-.2.8-1.4.8s-2.2.4-2.2.9.9.7 2 .4c1.5-.4 2 0 2 1.3 0 1.5.2 1.6.9.5s1-.9 1.6.8c.7 2.3 4.2 2.5 3.7.2-.1-.6.3-1.1 1-1 2.9.3 4.9-.2 4.3-1.1-.4-.6-1.1-.7-1.7-.4-.7.4-.8.2-.4-.4 1.1-1.8 3.8-.2 3.3 1.9-.3 1.1-.1 1.9.4 1.9s.9-1.3.9-3c0-2.3.4-2.8 1.8-2.4 1.3.4 1.3.3-.2-.7-1.5-.9-2.1-.9-2.4-.1-.6 1.8-2.2 1.4-2.2-.6 0-1.3-.3-1.1-1.3.7-1.8 3.5-3.2 2.6-3-2 .1-3.3-.1-3.8-1.3-2.8-1.3 1-1.8.6-1.5-1.4.1-1-.2-.9-2.3.6m1.2 4.5c-.1 1.6-.7 2.9-1.4 2.9-.9 0-1-.7-.4-2.3.5-1.2.6-2.5.3-2.8-.4-.3-.1-.6.5-.6.7 0 1.1 1.2 1 2.8m-14.2 1.1c-.3.5.1 1.4.9 2.1 1.3 1 1.5.9 1.5-.9 0-2.1-1.4-2.8-2.4-1.2m29.9 2c-1.9.8-1.9.8.4 1.6 1.8.5 2 .9 1 1.6-.8.5-1.8.4-2.3-.1-1.9-1.9-2.6-1-.9 1 1.3 1.4 1.9 1.6 2.5.7.5-.8.8-.4.8 1 0 1.3.5 2.3 1.1 2.3s.8-.8.5-1.8c-.3-.9-.2-2.3.3-3.1.9-1.4.4-4.2-.8-4-.3 0-1.5.4-2.6.8"/><path d="M541.1 560.4c-.6.7-.8 2.2-.4 3.1.4 1.3.3 1.6-.6 1-1-.6-1.1-.3-.2 1.4 1.5 2.7 1.7 2.7 1.8-.7.1-4.8.3-5.3 1.4-4.7.6.4.8 1.3.5 2.1s.1 1.4.9 1.4 1.5.5 1.5 1.1c0 .8.5.8 1.5-.1.8-.7 1.5-1.8 1.4-2.4 0-.7-.2-.6-.6.1-.8 2.2-2.5 1.4-1.8-.8.5-1.5.4-1.9-.4-1.4-.7.4-1.8.2-2.5-.4-1-.8-1.6-.8-2.5.3m11.2 1.8c.2.7 1 1.2 1.7 1 .8-.2 1 .3.7 1.3-.9 2.3.1 1.8 1.4-.8.6-1.2.8-1.9.4-1.5s-1.7.3-2.7-.3c-1.6-.9-1.9-.8-1.5.3m6.1 2.9c0 1 .4 1.9.8 1.9s.8-.6.8-1.4-.4-1.7-.8-2c-.4-.2-.8.4-.8 1.5m-28.2.9c0 1.4.2 1.9.5 1.2.2-.6.2-1.8 0-2.5-.3-.6-.5-.1-.5 1.3"/><path d="M544 566.5c0 .8.4 1.5 1 1.5.5 0 .7-.7.4-1.5-.4-.8-.8-1.5-1-1.5s-.4.7-.4 1.5m-39.4 2.3c-.4.7-.4 1.7 0 2.3.5.8-.1 1-1.9.7-1.5-.3-2.4-.1-2.1.3.3.5 1.3.9 2.2.9 1.5.1 1.5.2-.1 1.1-1.4.8-2.1.7-3.1-.7-1.2-1.6-1.3-1.5-1.3.9 0 1.6.5 2.7 1.3 2.7.7 0 1.8.8 2.4 1.7.9 1.6 1 1.5.8-.6-.2-1.3.3-2.5 1-2.7.7-.1.8 0 .2.3s-.6 1.1.1 2.5c.8 1.5 1.7 1.8 3.6 1.3 1.8-.4 2.9-.1 3.9 1.2 1.3 1.7 1.4 1.7.7-.1-.5-1.4-.3-1.7.7-1.1s1.1.4.4-.6c-1.5-2.5-1.5-4.9 0-4.3.8.3 1.2 1.2 1 1.9-.3.7-.1 1.6.5 1.9 1.2.8 3.3-2.8 2.3-3.9-.4-.5-.1-.5.5-.1.9.5 1.1.2.7-.8-.5-1.2-.9-1.3-2.5-.3-1.4.9-2.1.9-3.1-.1-.6-.6-2.1-1.2-3.2-1.2-1.5 0-1.7-.3-.8-.9 1-.6.9-1.1-.4-2.2-1.2-.9-1.5-1-1-.2.4.7.3 1.3-.3 1.3-.5 0-1.1-.5-1.3-1.2-.3-.9-.6-.9-1.2 0m6.7 8.5c-.5.9-3.3-1.8-3.3-3.2 0-.6.8-.3 1.8.6 1.1 1 1.7 2.1 1.5 2.6m-3.3.7c0 .5-.5 1-1.1 1-.5 0-.7-.5-.4-1 .3-.6.8-1 1.1-1 .2 0 .4.4.4 1m11.3-3.1c-.9 1.5-.7 2.2 1 4 1.8 1.8 1.8 2.1.4 1.5-1.3-.5-1.6-.2-1.1.9.6 1.8 4.2 2.9 5 1.6.3-.5.1-.9-.4-.9-.4 0-.7-1.6-.6-3.5.2-2-.1-3.3-.6-3s-1.3-.1-1.7-1c-.7-1.2-1-1.2-2 .4m7.7 2.1c1.3.9 1.3 1 0 1.1-1 0-.8.3.5.9 2.9 1.3 3.1 1.2 3.2-1.2.2-1.8 0-2-.7-.8-.7 1-1 1.1-1 .2 0-.6-.8-1.2-1.7-1.2-1.5 0-1.6.2-.3 1m9.4 1.1c-1.9 2.2-1.9 2.2.4.8 1.2-.8 2.2-1.7 2.2-2.1 0-1.2-.6-.9-2.6 1.3m7.6.4c0 .8.4 1.5.8 1.5.5 0 .9-.7.9-1.5s-.4-1.5-.9-1.5c-.4 0-.8.7-.8 1.5m-27.9 1.4c-.8.5-.9 1.1-.3 1.5.5.3 1.2-.1 1.6-.9.6-1.7.6-1.8-1.3-.6m11.2 1.6c0 1.8 2.3 2 3.3.2.4-.6.4-.9-.1-.5-.4.4-1.3.3-2-.2-.8-.7-1.2-.5-1.2.5"/></g><path fill="#408080" fill-opacity=".5" d="M453.4 518c0 5.8.1 8.1.3 5.2.2-2.8.2-7.6 0-10.5-.2-2.8-.3-.5-.3 5.3"/><path fill="#80BF80" fill-opacity=".1" d="M576.8 540.7c.7.3 1.6.2 1.9-.1.4-.3-.2-.6-1.3-.5-1.1 0-1.4.3-.6.6"/><path fill="#004080" fill-opacity=".8" d="M493.3 482.7c.9.2 2.3.2 3 0 .6-.3-.1-.5-1.8-.5-1.6 0-2.2.2-1.2.5"/><path fill="#408080" fill-opacity=".1" d="M484.8 468.7c.7.3 1.6.2 1.9-.1.4-.3-.2-.6-1.3-.5-1.1 0-1.4.3-.6.6"/><path fill="#004080" fill-opacity=".4" d="M538.8 575.7c.6.2 1.8.2 2.5 0 .6-.3.1-.5-1.3-.5s-1.9.2-1.2.5m-15 9c.6.2 1.8.2 2.5 0 .6-.3.1-.5-1.3-.5s-1.9.2-1.2.5"/><path fill="#004080" fill-opacity=".5" d="M471.8 519.7c.7.3 1.6.2 1.9-.1.4-.3-.2-.6-1.3-.5-1.1 0-1.4.3-.6.6m31 0c.7.3 1.6.2 1.9-.1.4-.3-.2-.6-1.3-.5-1.1 0-1.4.3-.6.6m44 56c.7.3 1.6.2 1.9-.1.4-.3-.2-.6-1.3-.5-1.1 0-1.4.3-.6.6"/><path fill="#4080BF" fill-opacity=".1" d="M437.8 544.7c.6.2 1.8.2 2.5 0 .6-.3.1-.5-1.3-.5s-1.9.2-1.2.5"/><path fill="#000040" d="M478.2 487c0 1.4.2 1.9.5 1.2.2-.6.2-1.8 0-2.5-.3-.6-.5-.1-.5 1.3m0 7c0 1.4.2 1.9.5 1.2.2-.6.2-1.8 0-2.5-.3-.6-.5-.1-.5 1.3"/><path fill="#4080BF" fill-opacity=".2" d="M466.2 473.5c0 1.6.2 2.2.5 1.2.2-.9.2-2.3 0-3-.3-.6-.5.1-.5 1.8m-37.4 78.2c.7.3 1.6.2 1.9-.1.4-.3-.2-.6-1.3-.5-1.1 0-1.4.3-.6.6"/><path fill="#4080BF" fill-opacity=".3" d="M466.1 477.6c0 1.1.3 1.4.6.6.3-.7.2-1.6-.1-1.9-.3-.4-.6.2-.5 1.3m.2 5.9c0 2.2.2 3 .4 1.7.2-1.2.2-3 0-4-.3-.9-.5.1-.4 2.3m-.1 7.5c0 1.9.2 2.7.5 1.7.2-.9.2-2.5 0-3.5-.3-.9-.5-.1-.5 1.8"/><path fill="navy" fill-opacity=".9" d="M445.2 517c0 1.9.2 2.7.5 1.7.2-.9.2-2.5 0-3.5-.3-.9-.5-.1-.5 1.8"/><path fill="#408040" fill-opacity=".9" d="M585.8 541.9c-1.9.4-2.5 1-1.9 1.9.4.7 1.4 1.2 2.1 1s1.5.3 1.8 1.1c.3 1 0 1.1-.9.5-1.1-.6-1-.3.1 1.1 1.4 1.7 1.4 1.8-1 .5-2.5-1.3-2.5-1.3-.7.8 1.4 1.5 1.5 2.2.6 2.8-.8.4-1 .3-.5-.4.4-.7.1-1.2-.8-1.2s-1.6-.6-1.6-1.3c0-.8-.4-.7-1 .3-.8 1.3-1 1.2-1-.3 0-.9.5-1.7 1.2-1.7.9 0 .9-.3.1-1.1-.6-.6-.9-1.7-.7-2.3.3-.7-.7-1.3-2.4-1.4l-2.9-.2-.2 6.4c-.1 5.6.1 6.4 1.9 6.9 1.1.3 2 .2 2-.2s1.9-1.1 4.3-1.7l4.2-.9.2-5.8c.1-3.1.1-5.6 0-5.6-.1.1-1.4.4-2.9.8"/><path fill="#008040" fill-opacity=".9" d="M545.7 534.1c.7.7 1.5 1 1.8.7s-.2-.9-1.2-1.2c-1.4-.6-1.5-.5-.6.5m6.3 2.8c0 .6.7 1.1 1.5 1.1s1.5.5 1.5 1.1c0 .5.5.7 1.2.3.6-.4.8-.3.5.3-.4.6 0 1.3.7 1.6.8.3 1.7.1 1.9-.6.4-1 .2 9.7-.2 11.4 0 .4-.8 1-1.7 1.3-1.4.5-1.5.4-.5-.8.7-.8 1-2 .6-2.5-.3-.6-.1-2 .5-3.1.7-1.3.7-2 .1-2s-.8-.7-.4-1.7c.5-1.3.2-1.5-1.5-1.1-1.4.4-1.9.2-1.6-.7.8-1.9-1.4-2.9-2.9-1.3-.7.7-1.2 2.8-1.2 4.5 0 1.8-.3 3.3-.7 3.3s-.5.6-.2 1.4c.3.7-.2 2-1 2.9-1.9 1.9-1.1 2.1 12 3.8 7.4 1 9.8 1 12.3-.1 3-1.2 3.1-1.4 3.1-7.7 0-4.5-.4-6.3-1.2-6.2-.7.1-2-.1-2.8-.4-.8-.4-4.9-1.6-9-2.6-4.1-1.1-8.3-2.2-9.2-2.6-1.1-.4-1.8-.3-1.8.4m13.7 5.6c0 .8-.4 1.5-.9 1.5-.4 0-.8-.7-.8-1.5s.4-1.5.8-1.5c.5 0 .9.7.9 1.5m3.1 4.4c-.6.2-1.4-.2-1.8-.9-.6-.9-.9-.9-1.5 0-.4.7.1 1.3 1.4 1.7 1.2.3 2.1 1 2.1 1.7 0 .6.5.4 1-.4.8-1.3 1-1.2 1 .2 0 1.9-2.5 2.5-3.5.8-.4-.6-1-.8-1.5-.5-.4.3-1-.5-1.3-1.7-.8-3 2.2-5.3 3.9-2.9.9 1 .9 1.7.2 2m6.2-2.9c0 .5-.8 1-1.7 1-1.5 0-1.6-.2-.3-1 1.9-1.2 2-1.2 2 0m-20.7 2.7c-.3.7-.9 1-1.4.7-1.4-.8-1.1-2.1.5-2.1.8 0 1.2.6.9 1.4m8.7.3c0 .5-.4 1-1 1-.5 0-1-.5-1-1 0-.6.5-1 1-1 .6 0 1 .4 1 1m-8 3.2c0 .4-.7.8-1.5.8s-1.5-.4-1.5-.8c0-.5.7-.9 1.5-.9s1.5.4 1.5.9m10.5 1.9c-.3.3.7.6 2.1.6 2.4 0 4.2.9 3.3 1.7-.8.7-6.4 1.7-5.7 1 .4-.4-.2-2-1.4-3.6-2.1-3-2.1-3 0-1.7 1.1.7 1.9 1.6 1.7 2m-11 .9c.3.5-.1 1-.9 1-.9 0-1.6-.5-1.6-1 0-.6.4-1 .9-1 .6 0 1.3.4 1.6 1m-10.7-.3c.7.3 1.6.2 1.9-.1.4-.3-.2-.6-1.3-.5-1.1 0-1.4.3-.6.6"/><path fill="#40BF40" fill-opacity=".3" d="M562.1 492.6c0 1.1.3 1.4.6.6.3-.7.2-1.6-.1-1.9-.3-.4-.6.2-.5 1.3"/><path fill="#40BF80" fill-opacity=".4" d="M562.3 509c0 2.5.2 3.5.4 2.2.2-1.2.2-3.2 0-4.5-.2-1.2-.4-.2-.4 2.3"/><path fill="#80BF00" d="M605.8 536.7c.7.3 1.6.2 1.9-.1.4-.3-.2-.6-1.3-.5-1.1 0-1.4.3-.6.6m-1.2 3.1c-.3.5.1.9.9.9s1.5-.4 1.5-.9c0-.4-.4-.8-.9-.8-.6 0-1.2.4-1.5.8m-5.3 2.7c0 .8.4 1.2.9.9s.6-1 .3-1.5c-.9-1.3-1.2-1.1-1.2.6"/><g fill="#80BF00" fill-opacity=".9" stroke-opacity=".9" stroke-width="0"><path d="M621.3 524.2c-1.1 1.9-16.1 11.8-17.9 11.8-1 0-1.3.7-.8 2.4.5 2.1.3 2.3-1.9 1.9-1.6-.3-2.6.1-3 1.1s-.1 1.6.9 1.6c.9 0 1.2-.5.8-1.2s-.3-.8.5-.4c1.4.9.5 2.6-1.5 2.6-1.5 0-1.9 1.6-.5 2.4.5.3 1.4-.1 2.1-.9.6-.7 1.9-1.1 2.7-.8 1.1.4 1.4.2.9-.5-.5-.8 0-1.2 1.2-1.2 2 0 15.8-13.7 14.8-14.7-.3-.3.5-1.4 1.7-2.3 1.2-1 1.9-2.1 1.5-2.5-.3-.4-1 0-1.5.7M615 532c-.8.5-1.7.7-1.9.4-.3-.3.1-.9.9-1.4s1.7-.7 1.9-.4c.3.3-.1.9-.9 1.4m-1 2.5c0 .2-.6.8-1.3 1.4-1 .8-1.4.7-1.4-.2 0-.8.6-1.4 1.4-1.4.7 0 1.3.1 1.3.2m-6.3 2.1c-.3.3-1.2.4-1.9.1-.8-.3-.5-.6.6-.6 1.1-.1 1.7.2 1.3.5m-.7 3.2c0 .5-.7.9-1.5.9s-1.5-.4-1.5-.9c0-.4.7-.8 1.5-.8s1.5.4 1.5.8"/><path d="M600.5 546c-.3.5-.1 1 .4 1 .6 0 1.1-.5 1.1-1 0-.6-.2-1-.4-1-.3 0-.8.4-1.1 1"/></g><path fill="#0080BF" fill-opacity=".5" d="M445.8 541.7c.6.2 1.8.2 2.5 0 .6-.3.1-.5-1.3-.5s-1.9.2-1.2.5m6 0c.6.2 1.8.2 2.5 0 .6-.3.1-.5-1.3-.5s-1.9.2-1.2.5"/><path fill="teal" fill-opacity=".9" d="M515.8 527.7c1.8.2 4.5.2 6 0s0-.4-3.3-.4-4.5.2-2.7.4m10.5 1.5c.2.7 1 1.2 1.6 1 .6-.1 1.1.4 1.1 1.2s1 2.2 2.2 3c1.2.9 1.7 1.6 1 1.6s-2.3-.9-3.4-2l-2.2-2-1.3 2.2c-.7 1.3-1.2 3.1-1.3 4 0 1-.7 1.8-1.5 1.8-2.5 0-1.7 1.9 1.8 4 3.9 2.4 4.7 2.5 4.7.5 0-.8-.6-1.5-1.2-1.5-.9 0-.8-.4.2-1 1.3-.8 1.3-1-.1-1-.9 0-1.6-.7-1.6-1.5 0-1.6 1-1.8 4.5-.8 1.3.3 2 .9 1.4 1.2-.5.3-1.2 2.1-1.5 3.8-.6 2.9-.3 3.5 2.3 4.8 3.9 2 4.9 1.9 4.3-.4-.6-2.2-2.9-3.4-4.6-2.5-.8.5-.8.2 0-.6 1.1-1.1 1.7-1.1 3.7 0 1.4.7 2.3 1.7 2 2.1-.9 1.5 1.4 4.5 3.6 4.6 1.8.2 2.1-.2 1.7-2.3s-.1-2.5 1.7-2.2c2.1.4 2.3.9 1.1 4-.5 1.2-.2 1.8.8 1.8 1.9 0 3.1-3 1.7-4.4-1.3-1.3-1.3-2.9 0-2.1.6.4 1-.6 1-2.4 0-1.6.5-3.3 1-3.6 1.5-.9 1.2-4.5-.3-4.5-.7 0-3.1-.9-5.2-2-2.2-1.1-4.6-1.8-5.3-1.5s-1.1.1-.8-.4-2-1.6-5.2-2.5c-7-1.9-8.5-2-7.9-.4m7.7 3.2c0 .3-.4.8-1 1.1-.5.3-1 .1-1-.4 0-.6.5-1.1 1-1.1.6 0 1 .2 1 .4m-5 4.1c0 .2-.9.3-1.9.2-1.1 0-1.8-.5-1.5-.9.4-.6 3.4 0 3.4.7m14-.5c-.8.5-2.4.9-3.5.9h-2l2-.9c1.1-.5 2.7-.9 3.5-.9 1.3-.1 1.3 0 0 .9m3.7 1.5c-1.3.9-1.4 1.4-.4 2.4.9.9.9 1.6 0 3.1-1 1.4-1 2 0 2.3.7.3.4.6-.5.6-2.1.1-2.4-2.8-.5-4.8 1-1.1.9-1.3-.4-.8-1.3.4-1.5.1-1.2-1.4.3-1 1-1.9 1.5-1.9s.6-.4.3-1c-.4-.6.1-.7 1.1-.3 1.5.6 1.5.7.1 1.8m-11.2 2.6c.9 1.7 1.9 2.8 2.2 2.5.4-.3 1.2-.1 2 .5.7.6 1.3.9 1.3.5v-1.4c0-.4-.4-.8-1-.8-.5-.1-1.4-.2-1.9-.3-1.6-.2-2.1-3.1-.5-3.1.9 0 1.2.5.8 1.2-.5.8 0 .9 1.4.6 1.2-.4 2-.2 1.7.2-.3.5-.1 1.1.4 1.5 1.5.9.1 3.5-1.9 3.5-1 0-2.3-.7-3-1.5s-1.5-1.3-1.9-1.1c-.4.3-1.3 0-2.1-.6-1.2-.8-1.2-.9.3-.4 2 .6 2.1.2.7-2.5-.6-1-.8-1.9-.6-1.9.3 0 1.3 1.4 2.1 3.1m15.5-.7c0 .2-.7.7-1.6 1-.8.3-1.2.2-.9-.4.6-1 2.5-1.4 2.5-.6m-35 0c0 .2.7.7 1.6 1 .8.3 1.2.2.9-.4-.6-1-2.5-1.4-2.5-.6m-.6 6.4c.3.5-.1 1.2-.9 1.6-.8.3-1.2 1.2-.9 2.1.3.8 1 1.2 1.5.9s.9-.1.9.5c0 1.7-2 2.3-2.6.7-.6-1.5-3.5-3.1-3.3-1.8.5 2.8-.5 4.4-3.1 5.3-3.2 1.1-4 2.6-1.5 2.6.8 0 1.2-.4.9-.9-.3-.4 0-.8.5-.8.6 0 1.1.5 1.1 1 0 .6 1.2 0 2.7-1.4 2-1.9 3.1-2.3 4.9-1.6 1.5.6 2.6.5 3-.2.5-.7.3-.8-.5-.3-.9.5-1.2.2-.9-1.1.2-1.1.9-1.8 1.5-1.7 1.8.4.2-3.7-1.9-4.8-1.3-.7-1.8-.7-1.4-.1m2.1 2.2c.3.5.1 1-.4 1-.6 0-1.1-.5-1.1-1 0-.6.2-1 .4-1 .3 0 .8.4 1.1 1m-5 4c.3.5.1 1-.4 1-.6 0-1.1-.5-1.1-1 0-.6.2-1 .4-1 .3 0 .8.4 1.1 1m-21.5.4c0 .2.7.7 1.6 1 .8.3 1.2.2.9-.4-.6-1-2.5-1.4-2.5-.6m83 9.1c-1.1 1.3-1 1.4.4.9.9-.3 1.6-1 1.6-1.5 0-1.3-.6-1.1-2 .6m-9 1.5c0 .5 1.3.8 3 .7 3.9-.3 3.9-1.7 0-1.7-1.6 0-3 .4-3 1"/><path fill="#80BF40" fill-opacity=".9" d="M614 531c-1.3.8-1.2 1 .3 1 .9 0 1.7-.5 1.7-1 0-1.2-.1-1.2-2 0m-15 7.9c0 .5.9 1.1 2 1.4 1.3.3 2 0 2-.9 0-.8-.9-1.4-2-1.4s-2 .4-2 .9m4.8 4.8c.7.3 1.6.2 1.9-.1.4-.3-.2-.6-1.3-.5-1.1 0-1.4.3-.6.6m-3.9 2c-1.3 1.6-1.2 1.7.4.4s2.1-2.1 1.3-2.1c-.2 0-1 .8-1.7 1.7"/><g fill="#0080BF" fill-opacity=".9" stroke-opacity=".9" stroke-width="0"><path d="M507.4 529.5c-1.2.8-2.4 1.2-2.7.9s-1.4-.1-2.4.4c-1.6.9-1.2 1.3 3 3.1 5.5 2.4 6.1 2.5 5.2 1.1-.3-.6-.1-1 .5-1s.8-.5.4-1.3c-.6-.9-.4-.9.8.1 1.3 1 1.7 1 2.1 0 .4-.8.6-.7.6.4.1 1-.6 1.8-1.4 1.8-2.5 0-1.7 2 1.2 3.1 3 1.1 4.3.2 4.6-3.2 0-1.3.6-2.7 1.2-3.1.6-.5.6-.8-.2-.8-.7 0-1.3-.6-1.3-1.4 0-1-1-1.4-3-1.4-1.7.1-3 .7-3 1.3 0 .7-.9 1.5-2.1 1.8-1.3.4-1.8 1-1.4 1.8.5.7.3 1-.5.7-.8-.2-1.6-1.1-1.8-1.9-.3-.8-.1-1.1.3-.7s1.4.1 2.1-.7c2.7-2.7 1.2-3.4-2.2-1m10.2 3.1c-.4.9-.9 1.5-1.1 1.2-.3-.3-.3-1.3.1-2.2s.9-1.5 1.1-1.2c.3.3.3 1.3-.1 2.2m.4 3.4c0 .5-.5 1-1.1 1-.5 0-.7-.5-.4-1 .3-.6.8-1 1.1-1 .2 0 .4.4.4 1m5-5.8c1.5 1.6 1.7 2.4.8 2.9-.7.5-.9 1.1-.6 1.4.4.4.2 1.9-.3 3.4-.8 1.9-.7 2.3.1 1.5.6-.6 1.2-2.1 1.3-3.3.1-1.1.5-2.1.9-2.1s.8-1.4.8-3c0-2.5-.4-3-2.5-3h-2.6zm-65 .9c-1.9.5-4.2 1.3-5 1.6s-1.9.5-2.4.4-.4.5.4 1.3c1 1.3 1 1.6-.4 1.6-.9 0-1.6-.4-1.6-1s-1-.5-2.5.2c-1.4.6-2.5 1.5-2.5 2s-.3.7-.7.5c-.5-.3-2.4.6-4.3 2l-3.5 2.5 5-.6c8.6-1 12.8-1 20.4.4 7.7 1.3 23.1 6.2 26.6 8.4 2.1 1.4 7.5 3 8.8 2.8.4-.1.7.3.7.8s.4 1 .8 1c.5 0 .9-.7.9-1.5s-.6-1.5-1.3-1.5c-1.9 0-2.3-3.4-.5-5 .8-.8 1.7-1.4 1.9-1.2.1.2.6.2 1-.1.4-.2.1-.2-.5-.1-.7.2-1.3-.1-1.3-.7s-.7-.8-1.7-.5c-1.5.6-1.5.5.1-1.3 1.5-1.6 2.1-1.8 3.7-.8 1 .6 1.9 1.7 1.9 2.4s.7 1 1.5.7c.9-.4 1.8.1 2.1 1.1.5 1.3.9 1.4 1.5.4.5-.9-.2-1.8-2.2-2.7-1.6-.8-2.7-1.8-2.4-2.2.5-.8-1.4-1.1-7.9-1.1-5 0-5.9-.7-1.3-1.1 2.2-.2 2.6-.6 2.1-2.3-.7-2-.6-2 1.5-.1 1.1 1.1 2.1 1.5 2.1 1.1 0-.5.5-.4 1.2.3s2.3 1.2 3.8 1.2c2.4-.1 2.5-.1.5-1.6-1.1-.8-3-1.3-4.2-1.1-1.4.2-2 0-1.7-.8.6-1.4-2.3-2.8-3.8-1.9-.6.4-1.3.3-1.7-.2-2.1-2.9-6.1-3.8-18.6-4.1-7.1-.1-14.6.2-16.5.8m11.5 1.5c-.8.6-1.5 1.6-1.5 2.2 0 1.7 2.9 2.2 4.4.7.7-.8 1.5-1.3 1.7-1.2.3.1-.2-.3-.9-.9-1-1-1-1.3.1-1.7.8-.3 2 0 2.6.6.8.8 1.1.8 1.1-.1 0-.8.7-.9 2.4-.2 1.3.5 2.6.7 2.9.4.2-.3.7.2 1 1 .4 1.1.1 1.3-1.1.9-1.4-.6-1.5-.4-.4.9.7.9 1.1 2.8.8 4.3-.6 3.3-1.1 3.9-2.5 3-1.7-1-1.3-2.5.4-1.9.8.4 1.5.3 1.5 0 0-.4-1.1-1.1-2.5-1.6-3.3-1.3-3.3-3.4 0-2.8 1.9.4 2.3.2 1.5-.7-.5-.6-.6-1.6-.2-2 .4-.5-.1-.5-1.1-.2-1 .4-2.3.7-2.8.7s-.8.3-.8.7c.1.5.1 2.7 0 5-.1 3.2-.5 4.3-1.7 4.3-1.1 0-1.4-.5-1-1.6.4-1.2.2-1.5-.9-1-.8.3-1.5.1-1.5-.4 0-.6.4-1 .8-1 2.1 0 .6-2.5-1.6-2.7-1.6-.1-2.1.2-1.4.9 1.2 1.2.5 3.8-.9 3.8-.5 0-.8-.3-.8-.8.3-1.8-.2-3.2-1.2-3.2-.5 0-.7.4-.4 1 .3.5.3 1-.2 1.1-.4 0-1.6.2-2.5.4-1.4.3-1.7-.4-1.6-4.1 0-2.8.5-4.4 1.3-4.4.7 0 1.5.6 1.7 1.2.7 1.8-.2 3.9-1.3 3.2-1-.6-1.3.9-.3 1.9.8.8 4.4-2.5 4.4-4.1 0-.7-.4-1-1-.7-.5.3-1 0-1-.7 0-.8 1.2-1.3 3-1.3 2.5 0 2.8.2 1.5 1.1m18.9 1.2c.3-.7.3-.3 0 1-.4 1.5 0 2.4 1.1 2.8 1.1.5 1.3 1 .5 1.9-.6.7-.8 2-.4 2.9.3.9.1 1.6-.6 1.6-.6 0-.8.4-.5 1 .3.5.1 1-.4 1-.6 0-1.1-.4-1.1-1 0-.5-.7-.6-1.7-.3-1.1.4-1.4.3-.9-.5.4-.7 1.6-1.2 2.8-1.2 1.7 0 1.8-.3.8-1.5-.7-.8-1-2.2-.6-3 .3-.9 0-1.8-.8-2.1-.7-.3-1.3-1.1-1.3-1.9 0-1.1.4-1.2 1.3-.4q1.2 1.05 1.8-.3m-33.7 4.2c.1 1.1-.2 2-.5 2-.4 0-.8-.9-.9-2s.2-2 .5-2c.4 0 .8.9.9 2m-2.7 0c0 .5-.7 1-1.6 1-.8 0-1.2-.5-.9-1 .3-.6 1-1 1.6-1 .5 0 .9.4.9 1m-4 1c0 .5-.5 1-1.1 1-.5 0-.7-.5-.4-1 .3-.6.8-1 1.1-1 .2 0 .4.4.4 1m11.1 1.3c-1 .9-1.1.8-.5-.6.3-1 .9-1.5 1.2-1.2s0 1.1-.7 1.8m20.2 2.3c1.4 1.7 1.4 2.1.2 2.1-.8 0-1.2-.4-.9-.9.3-.4 0-.8-.5-.8-.6 0-1.1-.8-1.1-1.7s.1-1.4.3-1.2c.1.2 1 1.3 2 2.5m14.4.9c0 .6-.6 1.2-1.2 1.2s-1.2-.6-1.2-1.2.6-1.2 1.2-1.2 1.2.6 1.2 1.2m-10.3 2.1c.3.8.2 1.2-.4.9s-1-1-1-1.6c0-1.4.7-1.1 1.4.7m4.3 2c-.3.3-1.2.4-1.9.1-.8-.3-.5-.6.6-.6 1.1-.1 1.7.2 1.3.5m20.7-5.1c.1.8.5 1.8.9 2.1.4.4.1 1.4-.6 2.3-1.1 1.4-1 1.5.8.1 1.1-.8 2.1-1.5 2.3-1.6s-.1-1.2-.8-2.3c-1.2-2.4-2.9-2.8-2.6-.6m4.3 2.6c.4 1.3.8 1.8 1.1 1 .2-.7-.1-1.8-.6-2.3-.8-.8-.9-.4-.5 1.3"/><path d="M428.4 546.5c-3.4.7-8.5 2.5-11.5 4-5.2 2.6-17.9 11.2-17.9 12 0 .3 2.8-1.3 6.2-3.6 9.2-5.9 18.1-8.3 28-7.6 5.5.5 7.7.3 7.2-.4-.7-1.2 1.5-3.1 2.8-2.3 1.4.9.8 2.4-.7 1.8-1.1-.4-1.3-.2-.9.9.3.8 2 1.8 3.7 2.1 1.8.3 6 1.9 9.5 3.6 5 2.4 6.4 2.7 6.8 1.5.3-.7 1.2-1.1 1.9-.9.8.3 1.1 1.2.8 2s-1 1.1-1.7.7-.8-.3-.1.4c1.6 1.6 8.5 5.5 8.5 4.8 0-.3 1 .3 2.2 1.5 3.1 2.9 4.5 2.4 3.9-1.3-.1-.5.3-.6.9-.2.5.3 1-.1 1-1s.5-1.3 1-1c.6.3 1 .1 1-.4 0-1-1.4-1.5-3.3-1.2-.5.1-.6-.3-.2-.9.3-.5 1.6-.9 2.9-.8 1.7.2 2.4.8 2.4 2.5 0 1.3-.7 2.3-1.5 2.3s-1.1.4-.8 1c.3.5-.1 1-.9 1-2.3 0-1.9 3.1.4 3.7 1.1.3 2 .9 2 1.4 0 2 2.8.7 3.9-1.7 1-2.3.9-2.6-.4-2.1-.8.4-1.5.4-1.5.1 0-.2 1-.8 2.1-1.2 2-.8 2-.9.4-2.5-.9-.9-1.3-1.7-.9-1.7.5 0 .3-.5-.4-1.2s-.8-1.7-.1-2.9c.8-1.6.2-2.2-4.1-4.4l-5-2.5v2.3c0 2 .4 2.3 3.5 1.9 2.9-.4 3.4-.1 2.9 1.2-.7 1.9-3 2.1-3.7.3-.3-.7-.6-.5-.6.5-.1 1-.5 1.8-1.1 1.8-.5 0-1 1.6-1 3.6 0 3.1-.2 3.5-1.5 2.4-.8-.7-1.5-2.2-1.6-3.4 0-1.1-.3-1.5-.6-.9-.7 2-2.3 1.5-1.7-.5.5-1.5.3-1.4-1 .2-.9 1.1-1.9 1.6-2.3 1.3-.3-.4-.2-.7.2-.7.5 0 .1-.6-.9-1.3-1.7-1.2-1.7-1.4-.2-2 .9-.4 1.6-.3 1.6.2s1.1.8 2.4.8c1.8 0 2.8-.7 3.5-2.7 1-2.9.6-4-1.3-4-.6 0-.4.5.4 1.1 1.2.9 1.2 1 .1.7-2.2-.6-2.5-2.8-.4-2.9 2.2-.1-4.1-3-7.2-3.3-1.2-.1-2.6-.6-3.3-1s-3.8-.9-6.8-1.1c-3.1-.2-5.8-.6-6.2-.9-1-1.1-14.6-.5-20.8.9m19.7 4.2c-.9 1.6-1 1.4-1.1-1.2 0-2.1.3-2.6 1.1-1.8s.8 1.6 0 3m9.3-1.1c1 2.5-.1 2.9-1.4.5-.6-1.2-.7-2.1-.1-2.1.5 0 1.2.7 1.5 1.6m7.6 1.9c0-.5.5-.4 1.1.2s1.9.9 2.8.6c1.1-.3 1.2-.2.4.4-1.2.8-.3 3.6 1.1 3.4 2-.3 2.6 0 2 1-.5.8-.9.8-1.4-.1-.5-.8-1-.9-1.4-.2-.3.6-1.9.8-3.4.5s-3.3-.6-3.9-.6c-2.2-.1-1.4-2.7.8-2.7 1.1 0 1.8.4 1.5.8-.3.5.1.9.9.9s1.5-.4 1.5-.9c0-.4-.5-.8-1.1-.8-.5 0-.8-.4-.5-.8.2-.4-1.2-.7-3.2-.5-2 .1-2.9 0-1.9-.3 1.3-.4 1.6-1.1 1.1-2.7-.6-2.1-.6-2.1 1.5.2 1.1 1.3 2.1 2 2.1 1.6m-11.9.5c.5 0 .9.5.9 1.1 0 .8-.5.8-1.5-.1-.8-.7-1.5-.9-1.5-.4 0 .4-.6.2-1.2-.4-1-1-1-1.5.2-2.2 1.1-.7 1.6-.5 1.8.5.2.8.8 1.5 1.3 1.5m4.9 1.9c0 .4-.6.8-1.3.8-.8 0-1.4-.6-1.4-1.3s.6-1 1.4-.7c.7.3 1.3.8 1.3 1.2m25 15.1c0 .5-.8 1-1.7 1-1.5 0-1.6-.2-.3-1 1.9-1.2 2-1.2 2 0m20.6-20.5c2.5 1.9 4 1.9 2 0-.8-.8-2-1.5-2.7-1.5s-.4.6.7 1.5m7.5.1c0 1.1.3 1.4.6.6.3-.7.2-1.6-.1-1.9-.3-.4-.6.2-.5 1.3m-14 .8c-.1 1.2.4 1.6 1.4 1.3.8-.4 1.7-.2 2 .2.2.5 1.6 1.1 2.9 1.3 2.2.4 2.3.3 1.3-1.4-.8-1.3-2-1.8-3.9-1.5-1.5.2-3-.1-3.2-.7s-.5-.3-.5.8m11 2.2c0 1.1.3 1.4.6.6.3-.7.2-1.6-.1-1.9-.3-.4-.6.2-.5 1.3m-8.1 2.6c0 1.1 1.2 1 3-.2 1.2-.7 1-.9-.8-.7-1.2 0-2.2.5-2.2.9m1.6 1.7c-.4.5.1.8.9.7 2.1-.3 3.1-1.6 1.2-1.6-.9 0-1.8.4-2.1.9"/><path d="M485.6 559.5c-.3.9.1 1.8.9 2.1.8.4 1.5 1.4 1.5 2.3s.6 2.3 1.3 3c.7.9.7 1.1.1.8-1.5-.9-2.3 1.3-1.7 4.5.4 1.9 1.6 3 4.5 4.1 3.3 1.4 3.8 1.4 2.8.2s-1-1.5 0-1.5 1-.3 0-1.5c-1.1-1.3-1-1.4.2-1 2.3.9 3-2.2 1.3-5.6-1.2-2.2-1.3-2.9-.3-2.9.9 0 .9-.3-.2-.9-1.7-1.2-3.3-.4-2.4 1.2.5.8.3.8-.7-.1-1.6-1.5-3.3-1.6-2.3 0 .4.7.3.8-.4.4-2-1.2-1.3-2.9.8-2.3 3 .8 2.4-1-1-2.8-3.6-1.9-3.6-1.9-4.4 0m7.3 7.7c.3-.5 1.4.2 2.5 1.7 1.1 1.4 1.3 2 .6 1.3-.8-.6-2.2-1.2-3.2-1.2-1.1 0-1.8-.7-1.7-1.8q0-1.8.6-.3c.3.8.8.9 1.2.3m-1.9 4c0-.6.8-1.2 1.8-1.1 1 0 1.2.3.4.6-.6.2-1 .9-.6 1.4.8 1.3-2 1.1-3.4-.3-.7-.7-1.2-1.6-1.2-2.2 0-.5.7-.1 1.5 1s1.5 1.4 1.5.6"/><path d="M497.7 564.7c-1.3 1.2-.7 2.3 1.3 2.3 1.1 0 2-.4 2-1 0-.5-.7-.6-1.7-.3-1.1.4-1.4.3-.9-.5.8-1.3.3-1.6-.7-.5m1.8 5.3c.3.5.8 1 1.1 1 .2 0 .4-.5.4-1 0-.6-.5-1-1.1-1-.5 0-.7.4-.4 1"/></g><g fill="#0080BF" stroke-width="0"><path d="M510 529.9c-.7 1.1-1.7 1.8-2.2 1.5-.4-.3-.8-.1-.8.4 0 1.5 4.3 3.8 6.3 3.4.9-.2 1.7-1.1 1.6-2 0-1.1-.2-1.3-.6-.4-.4 1-.8 1-2.1 0-1.2-1-1.4-1-.8-.1.4.7.3 1.3-.3 1.3-2 0-2.2-2.2-.2-2.7 1.2-.3 2.1-1.2 2.1-1.9 0-2-1.3-1.7-3 .5m9-.4c0 .8.6 1.5 1.3 1.5.8 0 .9.3.1.8-.6.4-1.1 1.4-1.1 2.2s-.3 2.4-.7 3.6c-.5 1.7-.2 2 2.3 2 2 0 2.7-.4 2.4-1.3-.3-.7.1-2.1.8-3 1-1.2 1-1.5.2-.9-.7.4-1.3.3-1.3-.3 0-.5.5-1.1 1-1.3 1.2-.4-2.5-4.8-4-4.8-.6 0-1 .7-1 1.5m-2.4 2.1c-.4.9-.4 1.9-.1 2.2.2.3.7-.3 1.1-1.2s.4-1.9.1-2.2c-.2-.3-.7.3-1.1 1.2m-51.6 1.2c0 .7.5 1 1 .7.6-.3 1 0 1 .7 0 1.6-3.6 4.9-4.4 4.1-1-1-.7-2.5.3-1.9 1.1.7 2-1.4 1.3-3.2-.2-.6-1-1.2-1.7-1.2-.8 0-1.3 1.6-1.3 4.4-.1 3.7.2 4.4 1.6 4.1.9-.2 2.1-.4 2.5-.4.5-.1.5-.6.2-1.1-.3-.6-.1-1 .4-1 1 0 1.5 1.4 1.2 3.2 0 .5.3.8.8.8 1.4 0 2.1-2.6.9-3.8-.7-.7-.2-1 1.4-.9 2.2.2 3.7 2.7 1.6 2.7-.4 0-.8.4-.8 1 0 .5.7.7 1.5.4 1.1-.5 1.3-.2.9 1-.4 1.1-.1 1.6 1 1.6 1.2 0 1.6-1.1 1.7-4.3.1-2.3.1-4.5 0-5 0-.4.3-.7.8-.7s1.8-.3 2.8-.7c1-.3 1.5-.3 1.1.2-.4.4-.3 1.4.2 2 .8.9.4 1.1-1.5.7-3.3-.6-3.3 1.5 0 2.8 1.4.5 2.5 1.2 2.5 1.6 0 .3-.7.4-1.5 0-1.7-.6-2.1.9-.4 1.9 1.4.9 1.9.3 2.5-3 .3-1.5-.1-3.4-.8-4.3-1.1-1.3-1-1.5.4-.9 1.2.4 1.5.2 1.1-.9-.3-.8-.8-1.3-1-1-.3.3-1.6.1-2.9-.4-1.7-.7-2.4-.6-2.4.2 0 .9-.3.9-1.1.1-.6-.6-1.8-.9-2.6-.6-1.1.4-1.1.7-.1 1.7.7.6 1.2 1 .9.9-.2-.1-1 .4-1.7 1.2-1.5 1.5-4.4 1-4.4-.7 0-.6.7-1.6 1.5-2.2 1.3-.9 1-1.1-1.5-1.1-1.8 0-3 .5-3 1.3m-14.7.9c-1.7.6-1.7 2.3 0 2.3.8 0 1.4-.7 1.4-1.5s-.1-1.5-.1-1.4c-.1 0-.7.3-1.3.6m35 .8c0 .8.6 1.6 1.3 1.9.8.3 1.1 1.2.8 2.1-.4.8-.1 2.2.6 3 1 1.2.9 1.5-.8 1.5-1.2 0-2.4.5-2.8 1.2-.5.8-.2.9.9.5 1-.3 1.7-.2 1.7.3 0 .6.5 1 1.1 1 .5 0 .7-.5.4-1-.3-.6-.1-1 .5-1 .7 0 .9-.7.6-1.6-.4-.9-.2-2.2.4-2.9.8-.9.6-1.4-.5-1.9-1.1-.4-1.5-1.3-1.1-2.8.3-1.3.3-1.7 0-1q-.6 1.35-1.8.3c-.9-.8-1.3-.7-1.3.4m31.2 1.5c-.3.5-.1 1 .4 1 .6 0 1.1-.5 1.1-1 0-.6-.2-1-.4-1-.3 0-.8.4-1.1 1m-63.2 1.4c.3.7 0 1.9-.6 2.5-.9.9-.8 1.1.5.6 1.7-.7 2.1-4.5.5-4.5-.5 0-.7.6-.4 1.4"/><path d="M495.4 537.5c.5 1.7.1 2.1-2.1 2.3-4.6.4-3.7 1.1 1.3 1.1 6.5 0 8.4.3 7.9 1.1-.3.4.8 1.4 2.4 2.2 2 .9 2.7 1.8 2.2 2.7-.6 1-1 .9-1.5-.4-.3-1-1.2-1.5-2.1-1.1-.8.3-1.5 0-1.5-.7s-.9-1.8-1.9-2.4c-1.6-1-2.2-.8-3.7.8-1.6 1.8-1.6 1.9-.1 1.3 1-.3 1.7-.1 1.7.5s.6.9 1.3.7c.6-.1.9-.1.5.1-.4.3-1 .4-1.3.4-.3-.1-1.1.4-1.9 1.1-1.6 1.5-.9 4.8 1.1 4.8.8 0 1.2.4.9.9-.8 1.2 2.1 3.4 3.4 2.6.6-.3.8-1.1.5-1.6-.4-.5.1-.9.9-.9s1.8.5 2.1 1c.9 1.4 2.5.2 2.5-1.8 0-2.2 3.7-5.6 4.3-3.9.2.8.5.8 1.1-.1.4-.7.2-1.2-.4-1.2s-.8-.5-.3-1.3c.4-.6-.6-.3-2.2.7-1.8 1.2-2.6 1.4-1.9.5 2.2-3 0-6.9-4-6.9-1.8 0-3.7-.5-4.4-1.2s-1.2-.8-1.2-.3c0 .4-1 0-2.1-1.1-2.1-1.9-2.2-1.9-1.5.1m10.2 11c2 1.9.5 1.9-2 0-1.1-.9-1.4-1.5-.7-1.5s1.9.7 2.7 1.5m-5.2.8c1.6-.3 3.1.2 4.5 1.6 2.6 2.6 2.7 3.4.4 2.2-2.9-1.5-5.7-2.4-7-2.2-.7.1-1.3-.6-1.2-1.6 0-1 .3-1.3.5-.7.3.6 1.5.9 2.8.7m1.1 4.7c.3.5.1 1-.4 1-.6 0-1.1-.5-1.1-1 0-.6.2-1 .4-1 .3 0 .8.4 1.1 1"/><path d="M498.5 537c-.3.6.1.7.9.4 1.8-.7 2.1-1.4.7-1.4-.6 0-1.3.4-1.6 1m-49 1c-.3.5.1 1 .9 1 .9 0 1.6-.5 1.6-1 0-.6-.4-1-.9-1-.6 0-1.3.4-1.6 1m-3 1c-.3.5-.1 1 .4 1 .6 0 1.1-.5 1.1-1 0-.6-.2-1-.4-1-.3 0-.8.4-1.1 1m12.1.7c-.6 1.4-.5 1.5.5.6.7-.7 1-1.5.7-1.8s-.9.2-1.2 1.2m18.4 1.6c0 .9.5 1.7 1.1 1.7.5 0 .8.4.5.8-.3.5.1.9.9.9 1.2 0 1.2-.4-.2-2.1-1-1.2-1.9-2.3-2-2.5-.2-.2-.3.3-.3 1.2m14.3 2.2c0 .6.6 1.2 1.2 1.2s1.2-.6 1.2-1.2-.6-1.2-1.2-1.2-1.2.6-1.2 1.2m-9.3 1.4c0 .6.4 1.3 1 1.6s.7-.1.4-.9c-.7-1.8-1.4-2.1-1.4-.7m-35 4.6c.1 2.6.2 2.8 1.1 1.2.8-1.4.8-2.2 0-3s-1.1-.3-1.1 1.8m38.8-1.8c.7.3 1.6.2 1.9-.1.4-.3-.2-.6-1.3-.5-1.1 0-1.4.3-.6.6M441 549c-1.3.8-1.3 1.1-.1 2.2 1.1 1.1 1.3 1.1.6-.1-.6-1.1-.4-1.3.8-.8 1 .3 1.7.2 1.7-.3 0-1.4-1.5-1.9-3-1m15 1.1c.7 1.1 1.4 1.9 1.6 1.6.7-.7-.7-3.7-1.7-3.7-.6 0-.5.9.1 2.1m5.4-.4c.5 1.6.2 2.3-1.1 2.7-1 .3-.1.4 1.9.3 2-.2 3.4.1 3.2.5-.3.4 0 .8.5.8.6 0 1.1.4 1.1.8 0 .5-.7.9-1.5.9s-1.2-.4-.9-.9c.3-.4-.4-.8-1.6-.8-1.7 0-2 .5-1.8 2.7.3 3.2 1.9 4.8 3 3.1.3-.7-.1-1.8-1-2.5-1.5-1.1-1.4-1.2.8-.5 3 1 4.1.9 5.8-.1.7-.5 1.2-.4 1.2.3 0 .6.5.8 1.1.4.8-.4.7-.9-.2-1.5-.7-.4-1.6-.6-2-.3-.4.2-.9-.3-1.2-1-.3-.8-.3-1.7.1-1.9s.2-.3-.4-.1c-.6.1-1.7-.3-2.3-.9s-1.1-.7-1.1-.2c0 .4-1-.3-2.1-1.6-2.1-2.3-2.1-2.3-1.5-.2m-11.4.3c-1.2.7-1.2 1.2-.2 2.2.6.6 1.2.8 1.2.4 0-.5.7-.3 1.5.4 1 .9 1.5.9 1.5.1 0-.6-.4-1.1-.9-1.1s-1.1-.7-1.3-1.5c-.2-1-.7-1.2-1.8-.5m59 1.1c0 .5.5.7 1 .4.6-.3 1-.8 1-1.1 0-.2-.4-.4-1-.4-.5 0-1 .5-1 1.1m-53.7 2.3c0 .7.6 1.3 1.4 1.3.7 0 1.3-.4 1.3-.8s-.6-.9-1.3-1.2c-.8-.3-1.4 0-1.4.7"/><path d="M471.2 553.2c.2.6 1.1 1.3 1.9 1.6 1.1.3 1.1.2-.1-.7-.8-.6-1-1.1-.4-1.1 1.9 0 2.3 1.1 1.3 4-.7 2-1.7 2.7-3.5 2.7-1.3 0-2.4-.3-2.4-.8s-.7-.6-1.6-.2c-1.6.6-1.6.7-.1 1.8.9.7 1.4 1.5 1 1.8-.3.4-.3.7.2.7.4 0 1.4-.8 2.2-1.8 1.4-1.6 1.4-1.6.9 0-.6 2 1 2.5 1.7.5.3-.6.6-.2.6.9.1 1.2.8 2.7 1.6 3.4 1.3 1.1 1.5.7 1.5-2.4 0-2 .5-3.6 1-3.6.6 0 1-.8 1.1-1.8 0-1 .3-1.2.6-.5.7 1.8 3 1.6 3.7-.3.5-1.3 0-1.6-2.9-1.2-3.1.4-3.5.1-3.5-1.9 0-1.8-.6-2.3-2.6-2.3-1.5 0-2.4.5-2.2 1.2m13.5 6.2c-.3.7 0 1.9.6 2.5s.8 1.1.3 1.1c-.4 0 0 .8.9 1.7 1.6 1.6 1.6 1.7-.4 2.5-1.1.4-2.1 1-2.1 1.2 0 .3.7.3 1.6-.1 1.4-.5 1.5-.3.5 1.5-1.3 2.5-1.4 3.5-.2 2.8.5-.4 1.2 0 1.4.6.3.7.6.4.6-.7.1-1.5.4-1.6 1.3-.7 1.4 1.4 4.2 1.6 3.4.3-.4-.5 0-1.2.6-1.4.8-.3.6-.6-.4-.6-1-.1-1.8.5-1.8 1.1 0 .8-.7.5-1.5-.6-1.8-2.4-1.9-4-.2-3 1 .6 1 .4 0-.7-.7-.7-1.3-2.1-1.3-3s-.7-1.9-1.5-2.3c-.8-.3-1.2-1.2-.9-2.1.3-.8.4-1.5.1-1.5s-.7.6-1 1.4"/><path d="M477.5 561c-.4.6-.3 1 .2.9 1.9-.3 3.3.2 3.3 1.2 0 .5-.4.7-1 .4-.5-.3-1 .1-1 1s-.4 1.4-.8 1.1c-.4-.2-.8.5-.9 1.7 0 1.2.1 1.6.4.9.3-.6 1.1-1.2 1.9-1.2.9 0 1.2-.5.9-1-.3-.6 0-1 .8-1s1.5-1 1.5-2.3c0-1.7-.7-2.3-2.4-2.5-1.3-.1-2.6.3-2.9.8m11.5 2c0 .5.5 1.2 1.2 1.6s.8.3.4-.4c-.9-1.5.6-1.6 2-.2.7.7 1.1.7 1.1-.3 0-.7-1.1-1.4-2.4-1.5-1.2-.1-2.3.2-2.3.8m7.5 4.1c2.1 4 1.3 4.8-1.4 1.3-1.2-1.5-2.1-2.1-2.1-1.3 0 1.1-.2 1.1-1-.1-.8-1.3-1-1.2-1 .2 0 1 .7 1.8 1.7 1.8.9 0 2.4.7 3.4 1.6 1.8 1.6 4.4 1.1 3.4-.7-1.1-1.6.7-.9 2.1.8 1.3 1.6 1.3 1.6 1-.7-.3-1.4-.5-2.9-.5-3.5-.1-.5-.6-.4-1.2.2-1.3 1.3-3.9.6-3.9-.9 0-.5.5-.6 1.2-.2s.8.3.4-.4-1.4-1.2-2.2-1.2c-1.2 0-1.2.4.1 3.1M481 569c-1.3.8-1.2 1 .3 1 .9 0 1.7-.5 1.7-1 0-1.2-.1-1.2-2 0"/></g><path fill="#0080BF" fill-opacity=".7" d="M468.8 529.7c.7.3 1.6.2 1.9-.1.4-.3-.2-.6-1.3-.5-1.1 0-1.4.3-.6.6"/><path fill="#80BF40" fill-opacity=".6" d="m612.4 537.2-1.9 2.3 2.3-1.9c2.1-1.8 2.7-2.6 1.9-2.6-.2 0-1.2 1-2.3 2.2"/><g fill="teal" stroke-width="0"><path d="M526 531c0 1 4.9 5 6.2 5 .7 0 .2-.7-1-1.6-1.2-.8-2.2-2.1-2.2-2.8s-.7-1.3-1.5-1.3-1.5.3-1.5.7m6 2.1c0 .5.5.7 1 .4.6-.3 1-.8 1-1.1 0-.2-.4-.4-1-.4-.5 0-1 .5-1 1.1m-6.4 2.7c-.3.4.4.9 1.5.9 2.3.2 2.5-.3.4-1-.8-.4-1.6-.3-1.9.1m13.9.2-2 .9h2c1.1 0 2.7-.4 3.5-.9 1.3-.9 1.3-1 0-.9-.8 0-2.4.4-3.5.9m6 0c.3.6.2 1-.3 1s-1.2.9-1.5 1.9c-.3 1.5-.1 1.8 1.2 1.4 1.3-.5 1.4-.3.4.8-1.9 2-1.6 4.9.5 4.8.9 0 1.2-.3.5-.6-1-.3-1-.9 0-2.3.9-1.5.9-2.2 0-3.1-1-1-.9-1.5.4-2.4 1.4-1.1 1.4-1.2-.1-1.8-1-.4-1.5-.3-1.1.3m-11.5 2.9c1.4 2.7 1.3 3.1-.7 2.5-1.5-.5-1.5-.4-.3.4.8.6 1.7.9 2.1.6.4-.2 1.2.3 1.9 1.1s2 1.5 3 1.5c2 0 3.4-2.6 1.9-3.5-.5-.4-.7-1-.4-1.5.3-.4-.5-.6-1.7-.2-1.4.3-1.9.2-1.4-.6.4-.7.1-1.2-.8-1.2-1.6 0-1.1 2.9.5 3.1.5.1 1.4.2 1.9.3.6 0 1 .4 1 .8v1.4c0 .4-.6.1-1.3-.5-.8-.6-1.6-.8-2-.5-.3.3-1.3-.8-2.2-2.5-.8-1.7-1.8-3.1-2.1-3.1-.2 0 0 .9.6 1.9"/><path d="M526.3 539.5c0 .8.7 1.5 1.6 1.5 1.4 0 1.4.2.1 1-1 .6-1.1 1-.2 1 .6 0 1.2.7 1.2 1.6 0 .8.5 1.2 1 .9.6-.3 1-1.7 1-3.1 0-1.3.6-2.4 1.3-2.5 1.6-.1-2.3-1.7-4.4-1.8-.9-.1-1.6.6-1.6 1.4m22.2.5c-.3.6.1.7.9.4 1.8-.7 2.1-1.4.7-1.4-.6 0-1.3.4-1.6 1m-16.1 5.2c-.4.6-.3.8.4.5 1.5-1 4.2.3 4.2 1.8 0 .8.4 1.6.9 1.9 1.5 1 .7-2.8-.9-4.1-1.9-1.6-3.7-1.6-4.6-.1m15.6 1.6c0 .5-1.1.7-2.4.5-2.1-.4-2.3-.2-1.9 2.1.5 2.5 3.2 3.2 5 1.1.5-.4.2-.5-.4-.1-.7.4-1.3.3-1.3-.3 0-.5.7-1.4 1.6-1.9 1.1-.6 1.3-1.1.5-1.6-.6-.4-1.1-.3-1.1.2m-29.9 3.5c-1.1 1.8-1.1 2 0 .9 1.6-1.4 3.3-1.6 2.4-.2-.3.5-.2 1 .4 1 1.9 0 2.1-1.9.3-2.9-1.4-.7-2.1-.5-3.1 1.2m-5.2-.1c1.5 2.1 3.1 2.3 3.1.6 0-.6-.3-.8-.7-.5-.3.4-1.3.1-2.2-.6-1.4-1.1-1.4-1-.2.5m-4.4 2.7c-.3.6-1.4.8-2.5.6-2.4-.5-3.6 1.1-1.5 1.9.8.3 1.5.1 1.5-.3 0-.5 1.1-.8 2.4-.7 1.7.2 2.3-.1 1.9-1-.6-1.6-1-1.7-1.8-.5m-5.5 16.6c0 .8.2 1.5.4 1.5s.6-.7 1-1.5c.3-.8.1-1.5-.4-1.5-.6 0-1 .7-1 1.5"/></g><g fill="#008040" stroke-width="0"><path d="M553.5 539.3c1 .8 1.5 1.9 1.2 2.5-.5.6.1.8 1.5.4 1.7-.4 2-.2 1.5 1.1-.4 1-.2 1.7.4 1.7s.6.7-.1 2c-.6 1.1-.8 2.5-.5 3.1.4.5.1 1.7-.6 2.5-1 1.2-.9 1.3.5.8.9-.3 1.7-.9 1.7-1.3.4-1.7.6-12.4.2-11.4-.2.7-1.1.9-1.9.6-.7-.3-1.1-1-.7-1.6.3-.6.1-.7-.5-.3-.7.4-1.2.2-1.2-.3 0-.6-.8-1.1-1.7-1.1-1.5 0-1.5.1.2 1.3m10.5 3.2c0 .8.4 1.5.8 1.5.5 0 .9-.7.9-1.5s-.4-1.5-.9-1.5c-.4 0-.8.7-.8 1.5m9.4.3c.3.5 0 1.3-.6 1.5-.8.3-.6.6.5.6 1.9.1 2.3-1.4.5-2.5-.6-.4-.8-.3-.4.4m-7.6 1.6c-1.7 1.3-1.4 6.1.2 5.1.5-.3 1.1-.1 1.5.5 1 1.7 3.5 1.1 3.5-.8 0-1.4-.2-1.5-1-.2-.5.8-1 1-1 .4 0-.7-.9-1.4-2.1-1.7-1.3-.4-1.8-1-1.4-1.7.6-.9.9-.9 1.5 0 .4.7 1.2 1.1 1.8.9.7-.3.7-1-.2-2-.9-1.4-1.5-1.5-2.8-.5"/><path d="M552 546.1c0 1.5 1.8 1.9 2.3.6.3-.8-.1-1.4-.9-1.4s-1.4.4-1.4.8m9 .9c0 .5.5 1 1 1 .6 0 1-.5 1-1 0-.6-.4-1-1-1-.5 0-1 .4-1 1m-9 3.2c0 .4.7.8 1.5.8s1.5-.4 1.5-.8c0-.5-.7-.9-1.5-.9s-1.5.4-1.5.9m11.8 1.6c1.2 1.6 1.8 3.2 1.4 3.6-.7.7 4.9-.3 5.7-1 .9-.8-.9-1.7-3.3-1.7-1.4 0-2.4-.3-2.1-.6.2-.4-.6-1.3-1.7-2-2.1-1.3-2.1-1.3 0 1.7M552 553c0 .5.7 1 1.6 1 .8 0 1.2-.5.9-1-.3-.6-1-1-1.6-1-.5 0-.9.4-.9 1"/></g><path fill="#40BF00" fill-opacity=".9" d="M596 540.6c0 .8.5 1.2 1 .9.6-.4.8-1.1.5-1.6-.9-1.4-1.5-1.1-1.5.7m-4 1c0 .8.4 1.3.9.9.5-.3 1.2-.1 1.6.5.3.5-.3 1-1.4 1-2.5 0-3.7 1.8-2.2 3.3.9.9 1.4.8 2.1-.3.7-1.2 1.2-1.2 3.4 0 1.4.7 2.9 1 3.3.7.3-.4-.1-.7-1-.7s-2.1-1.5-2.8-3.5c-1.3-3.5-3.9-4.8-3.9-1.9m-2.6 8.5c0 1.1.4 1.5.9 1s1.5-.7 2.2-.5c.7.3 1.6 0 2.1-.7.4-.8.3-1-.4-.5-.6.4-2 .3-3-.3-1.4-.7-1.8-.6-1.8 1"/><path fill="#408000" fill-opacity=".9" d="M593.8 539.7c.7.3 1.6.2 1.9-.1.4-.3-.2-.6-1.3-.5-1.1 0-1.4.3-.6.6M585 541c-3.5.7-3.5.7-.5.9 1.7 0 3.7-.4 4.5-.9 1.7-1.1 1.1-1.1-4 0m-2.5 4c-.8 1.3 1.5 2.4 2.7 1.2q.9-.9-.6-1.5c-.8-.3-1.8-.2-2.1.3m4.2 1.5c-.4.8-.3 1.6.1 1.9s.9-.4.9-1.5c.2-2.3-.3-2.5-1-.4m-3.2 2.5c.3.5 1.1 1 1.6 1 .6 0 .7-.5.4-1-.3-.6-1.1-1-1.6-1-.6 0-.7.4-.4 1m5 1c-.3.6 0 1 .7 1 .9 0 .9.3-.2 1-.8.5-1 1-.5 1 2.3 0 3.3-1.5 1.9-2.7-.8-.8-1.5-.9-1.9-.3m-7.7 4.7c.6.2 1.8.2 2.5 0 .6-.3.1-.5-1.3-.5s-1.9.2-1.2.5"/><path fill="#40BF40" fill-opacity=".9" d="M590 541.8c0 1.3 3.6 2.6 4.9 1.8.5-.4 1.2 0 1.4.6.3.8.6.5.6-.5.1-1.4-.4-1.7-1.9-1.2-1.2.4-2.7.1-3.5-.5-1-.8-1.5-.9-1.5-.2m5 5.1c0 .6-.6 1.1-1.4 1.1s-1.7.8-2.1 1.7c-.5 1.5-.4 1.6.6.5.7-.6 2.1-1.2 3.1-1.2 1.9 0 2.4-1.5.8-2.5-.5-.3-1-.1-1 .4"/><path fill="#408000" d="M589 545.1c0 .5.5.7 1 .4.6-.3 1-.8 1-1.1 0-.2-.4-.4-1-.4-.5 0-1 .5-1 1.1"/><path fill="#408040" d="M581.6 543.5c-.3.8-.1 1.5.4 1.5 1.3 0 2.2-1.8 1.1-2.4-.5-.3-1.1.1-1.5.9m-.6 5c0 .8.2 1.5.4 1.5s.6-.7 1-1.5c.3-.8.1-1.5-.4-1.5-.6 0-1 .7-1 1.5"/></svg>